# 3ds Max Wavefront OBJ Exporter v0.97b - (c)2007 guruware
# File Created: 18.10.2014 13:13:35

mtllib number_0.mtl

#
# object Number_0
#

v  -6.2703 21.3945 2.1654
v  -2.8854 24.2721 2.1654
v  -2.8854 24.2721 -2.1654
v  -6.2703 21.3945 -2.1654
v  -8.7284 17.1105 2.1654
v  -8.7284 17.1105 -2.1654
v  -9.8404 11.9319 2.1654
v  -9.8404 11.9319 -2.1654
v  -9.5028 6.8156 2.1654
v  -9.5028 6.8156 -2.1654
v  -7.6123 2.7186 2.1654
v  -7.6123 2.7186 -2.1654
v  -4.5669 0.0282 2.1653
v  -4.5669 0.0282 -2.1654
v  -0.7647 -0.8686 2.1654
v  -0.7647 -0.8686 -2.1654
v  3.0848 0.0518 2.1653
v  3.0848 0.0518 -2.1654
v  6.2721 2.8131 2.1654
v  6.2721 2.8131 -2.1654
v  8.5282 6.9917 2.1654
v  8.5282 6.9917 -2.1654
v  9.5841 12.1641 2.1654
v  9.5841 12.1641 -2.1654
v  9.3152 17.3408 2.1654
v  9.3152 17.3408 -2.1654
v  7.5969 21.5323 2.1654
v  7.5969 21.5323 -2.1654
v  4.7278 24.3065 2.1654
v  4.7278 24.3065 -2.1654
v  1.0070 25.2313 2.1654
v  1.0070 25.2313 -2.1654
v  2.9260 16.7319 2.1654
v  1.8183 18.2353 2.1654
v  1.8183 18.2353 -2.1654
v  2.9260 16.7319 -2.1654
v  3.5970 14.5146 2.1654
v  3.5970 14.5146 -2.1654
v  3.7001 11.8543 2.1654
v  3.7001 11.8543 -2.1654
v  3.2892 9.2135 2.1654
v  3.2892 9.2135 -2.1654
v  2.4182 7.0543 2.1654
v  2.4182 7.0543 -2.1654
v  1.1880 5.5875 2.1654
v  1.1880 5.5875 -2.1654
v  -0.3002 5.0239 2.1654
v  -0.3002 5.0239 -2.1654
v  -1.7992 5.4433 2.1654
v  -1.7992 5.4433 -2.1654
v  -3.0617 6.9251 2.1654
v  -3.0617 6.9251 -2.1654
v  -3.8553 9.2027 2.1654
v  -3.8553 9.2027 -2.1654
v  -3.9478 12.0094 2.1654
v  -3.9478 12.0094 -2.1654
v  -3.4381 14.7751 2.1654
v  -3.4381 14.7751 -2.1654
v  -2.4250 16.9300 2.1654
v  -2.4250 16.9300 -2.1654
v  -1.0850 18.3107 2.1654
v  -1.0850 18.3107 -2.1654
v  0.4054 18.7537 2.1654
v  0.4054 18.7536 -2.1654
v  8.5358 17.1661 -2.9528
v  8.8512 12.4518 -2.9528
v  4.3300 14.2268 -2.9528
v  3.6403 17.0898 -2.9528
v  2.3118 18.8930 -2.9528
v  6.9309 21.0810 -2.9528
v  4.3326 23.5934 -2.9528
v  0.4314 19.5828 -2.9528
v  1.0062 24.4201 -2.9528
v  -1.5067 19.0068 -2.9528
v  -2.5168 23.5519 -2.9528
v  -5.6557 20.8835 -2.9528
v  -3.0816 17.3840 -2.9528
v  -4.1940 15.0180 -2.9528
v  -7.9843 16.8251 -2.9528
v  -4.7376 12.0684 -2.9528
v  4.4899 11.8086 -2.9528
v  4.0533 9.0029 -2.9528
v  7.7800 7.2633 -2.9528
v  3.1017 6.6439 -2.9528
v  5.6477 3.3139 -2.9528
v  1.6592 4.9240 -2.9528
v  2.7146 0.7729 -2.9528
v  -0.2633 4.1960 -2.9528
v  -0.7659 -0.0593 -2.9528
v  -2.2427 4.7497 -2.9528
v  -4.1937 0.7492 -2.9528
v  -3.7567 6.5267 -2.9528
v  -6.9668 3.1990 -2.9528
v  -8.7267 7.0130 -2.9528
v  -4.6383 9.0569 -2.9528
v  -9.0475 11.8740 -2.9528
v  8.8512 12.4518 2.9528
v  4.3300 14.2268 2.9528
v  4.4899 11.8086 2.9528
v  4.0533 9.0029 2.9528
v  7.7800 7.2633 2.9528
v  3.1017 6.6439 2.9528
v  5.6477 3.3139 2.9528
v  1.6592 4.9240 2.9528
v  2.7146 0.7729 2.9528
v  -0.2632 4.1960 2.9528
v  -0.7659 -0.0593 2.9528
v  -2.2427 4.7497 2.9528
v  -4.1937 0.7492 2.9528
v  -3.7567 6.5267 2.9528
v  -6.9668 3.1990 2.9528
v  -8.7267 7.0130 2.9528
v  -4.6383 9.0569 2.9528
v  -4.7376 12.0684 2.9528
v  -9.0475 11.8740 2.9528
v  -7.9843 16.8251 2.9528
v  -4.1940 15.0180 2.9528
v  -5.6557 20.8835 2.9528
v  -3.0816 17.3840 2.9528
v  -1.5067 19.0068 2.9528
v  8.5358 17.1661 2.9528
v  3.6403 17.0898 2.9528
v  2.3118 18.8930 2.9528
v  6.9309 21.0810 2.9528
v  4.3326 23.5934 2.9528
v  0.4314 19.5828 2.9528
v  1.0062 24.4201 2.9528
v  -2.5168 23.5519 2.9528
# 128 vertices

vn -0.7690 0.6393 0.0000
vn -0.4556 0.8902 0.0000
vn -0.9337 0.3581 -0.0000
vn -0.9974 0.0727 -0.0000
vn -0.9974 0.0727 0.0000
vn -0.9691 -0.2465 -0.0000
vn -0.8022 -0.5970 -0.0000
vn -0.4597 -0.8881 -0.0000
vn 0.0015 -1.0000 -0.0000
vn 0.4567 -0.8896 -0.0000
vn 0.7801 -0.6257 -0.0000
vn 0.9400 -0.3412 -0.0000
vn 0.9972 -0.0747 -0.0000
vn 0.9758 0.2187 -0.0000
vn 0.8278 0.5610 0.0000
vn 0.4848 0.8746 0.0000
vn 0.0010 1.0000 0.0000
vn -0.8941 -0.4479 0.0000
vn -0.6002 -0.7999 0.0000
vn -0.9862 -0.1655 0.0000
vn -0.9862 -0.1655 -0.0000
vn -0.9983 0.0578 0.0000
vn -0.9641 0.2657 0.0000
vn -0.8574 0.5147 0.0000
vn -0.5790 0.8154 0.0000
vn -0.0446 0.9990 0.0000
vn 0.5388 0.8425 0.0000
vn 0.8676 0.4973 0.0000
vn 0.9831 0.1831 0.0000
vn 0.9972 -0.0746 -0.0000
vn 0.9521 -0.3059 -0.0000
vn 0.8225 -0.5687 0.0000
vn 0.5181 -0.8553 0.0000
vn -0.0313 -0.9995 0.0000
vn 0.0000 0.0000 -1.0000
vn -0.0000 0.0000 -1.0000
vn -0.0000 -0.0000 1.0000
vn 0.0000 -0.0000 1.0000
vn 0.0000 0.0000 1.0000
vn -0.3178 0.6209 -0.7166
vn -0.5397 0.4486 -0.7124
vn -0.5397 0.4486 0.7124
vn -0.3178 0.6209 0.7166
vn -0.6562 0.2517 -0.7113
vn -0.6562 0.2517 0.7113
vn -0.7018 0.0512 -0.7105
vn -0.7018 0.0512 0.7105
vn -0.6795 -0.1729 -0.7130
vn -0.6795 -0.1729 0.7130
vn -0.5611 -0.4176 -0.7147
vn -0.5611 -0.4176 0.7147
vn -0.3200 -0.6183 -0.7178
vn -0.3200 -0.6183 0.7178
vn 0.0011 -0.6973 -0.7167
vn 0.0011 -0.6973 0.7167
vn 0.3182 -0.6199 -0.7173
vn 0.3182 -0.6199 0.7173
vn 0.5471 -0.4388 -0.7129
vn 0.5471 -0.4388 0.7129
vn 0.6608 -0.2408 -0.7109
vn 0.6612 -0.2407 -0.7106
vn 0.6611 -0.2400 0.7109
vn 0.6613 -0.2402 0.7106
vn 0.7249 -0.0344 -0.6880
vn 0.7170 -0.0612 -0.6944
vn 0.7179 -0.0658 0.6930
vn 0.7215 -0.0407 0.6912
vn 0.6871 0.1547 -0.7099
vn 0.6850 0.1535 -0.7121
vn 0.6866 0.1581 0.7097
vn 0.6838 0.1591 0.7121
vn 0.5790 0.3924 -0.7147
vn 0.5790 0.3924 0.7147
vn 0.3368 0.6076 -0.7193
vn 0.3368 0.6076 0.7193
vn 0.0007 0.6965 -0.7175
vn 0.0007 0.6965 0.7175
vn -0.4151 -0.5532 -0.7222
vn -0.6358 -0.2977 -0.7121
vn -0.6432 -0.3022 -0.7036
vn -0.6276 -0.3144 0.7123
vn -0.6381 -0.3131 0.7034
vn -0.4151 -0.5532 0.7222
vn -0.7399 -0.1098 -0.6637
vn -0.7475 -0.1566 -0.6455
vn -0.7391 -0.1255 0.6618
vn -0.7404 -0.0896 0.6661
vn -0.7086 0.0385 -0.7045
vn -0.7043 0.0408 -0.7088
vn -0.7087 0.0334 0.7047
vn -0.7048 0.0316 0.7087
vn -0.6794 0.1872 -0.7094
vn -0.6794 0.1872 0.7094
vn -0.6025 0.3617 -0.7115
vn -0.6025 0.3617 0.7115
vn -0.4026 0.5670 -0.7187
vn -0.4026 0.5670 0.7187
vn -0.0307 0.6881 -0.7250
vn -0.0307 0.6881 0.7250
vn 0.3724 0.5823 -0.7227
vn 0.3724 0.5823 0.7227
vn 0.6082 0.3486 -0.7132
vn 0.6082 0.3486 0.7132
vn 0.6912 0.1287 -0.7111
vn 0.6912 0.1287 0.7111
vn 0.7031 -0.0526 -0.7092
vn 0.7031 -0.0526 0.7092
vn 0.6704 -0.2154 -0.7100
vn 0.6704 -0.2154 0.7100
vn 0.5776 -0.3994 -0.7120
vn 0.5776 -0.3994 0.7120
vn 0.3603 -0.5947 -0.7187
vn 0.3603 -0.5947 0.7187
vn -0.0216 -0.6881 -0.7253
vn -0.0216 -0.6881 0.7253
# 115 vertex normals

vt 0.7340 0.4590 0.0000
vt 0.7340 0.4350 0.0000
vt 0.7702 0.4350 0.0000
vt 0.7702 0.4590 0.0000
vt 0.7340 0.4948 0.0000
vt 0.7702 0.4948 0.0000
vt 0.7340 0.5381 0.0000
vt 0.7702 0.5381 0.0000
vt 0.7340 0.5809 0.0000
vt 0.7702 0.5809 0.0000
vt 0.7340 0.6152 0.0000
vt 0.7702 0.6152 0.0000
vt 0.7340 0.6377 0.0000
vt 0.7702 0.6377 0.0000
vt 0.4658 0.6262 0.0000
vt 0.4658 0.6589 0.0000
vt 0.4296 0.6589 0.0000
vt 0.4296 0.6262 0.0000
vt 0.4658 0.5967 0.0000
vt 0.4296 0.5967 0.0000
vt 0.6846 0.6443 0.0000
vt 0.6846 0.6212 0.0000
vt 0.7208 0.6212 0.0000
vt 0.7208 0.6443 0.0000
vt 0.6846 0.6793 0.0000
vt 0.7208 0.6793 0.0000
vt 0.6846 0.7225 0.0000
vt 0.7208 0.7225 0.0000
vt 0.6846 0.7658 0.0000
vt 0.7208 0.7658 0.0000
vt 0.6846 0.8009 0.0000
vt 0.7208 0.8009 0.0000
vt 0.6846 0.8241 0.0000
vt 0.7208 0.8241 0.0000
vt 0.1708 0.8458 0.0000
vt 0.1708 0.8138 0.0000
vt 0.2071 0.8138 0.0000
vt 0.2071 0.8458 0.0000
vt 0.1708 0.8755 0.0000
vt 0.2071 0.8755 0.0000
vt 0.5255 0.8936 0.0000
vt 0.5255 0.8810 0.0000
vt 0.5617 0.8810 0.0000
vt 0.5617 0.8936 0.0000
vt 0.5255 0.9122 0.0000
vt 0.5617 0.9122 0.0000
vt 0.5255 0.9344 0.0000
vt 0.5617 0.9344 0.0000
vt 0.5255 0.9565 0.0000
vt 0.5617 0.9565 0.0000
vt 0.5255 0.9745 0.0000
vt 0.5617 0.9745 0.0000
vt 0.5255 0.9868 0.0000
vt 0.5617 0.9868 0.0000
vt 0.5318 0.7418 0.0000
vt 0.5318 0.7285 0.0000
vt 0.5680 0.7285 0.0000
vt 0.5680 0.7418 0.0000
vt 0.5318 0.7523 0.0000
vt 0.5680 0.7523 0.0000
vt 0.0856 0.8763 0.0000
vt 0.0856 0.8640 0.0000
vt 0.1218 0.8640 0.0000
vt 0.1218 0.8763 0.0000
vt 0.0856 0.8954 0.0000
vt 0.1218 0.8954 0.0000
vt 0.0856 0.9189 0.0000
vt 0.1218 0.9189 0.0000
vt 0.0856 0.9420 0.0000
vt 0.1218 0.9420 0.0000
vt 0.0856 0.9600 0.0000
vt 0.1218 0.9600 0.0000
vt 0.0856 0.9716 0.0000
vt 0.1218 0.9716 0.0000
vt 0.0587 0.8005 0.0000
vt 0.0587 0.7875 0.0000
vt 0.0949 0.7875 0.0000
vt 0.0949 0.8005 0.0000
vt 0.0587 0.8106 0.0000
vt 0.0949 0.8106 0.0000
vt 0.1405 0.4809 0.0000
vt 0.1520 0.5187 0.0000
vt 0.1118 0.5128 0.0000
vt 0.1008 0.4908 0.0000
vt 0.0865 0.4787 0.0000
vt 0.1199 0.4521 0.0000
vt 0.0940 0.4366 0.0000
vt 0.0699 0.4766 0.0000
vt 0.0653 0.4362 0.0000
vt 0.0552 0.4850 0.0000
vt 0.0383 0.4499 0.0000
vt 0.0178 0.4776 0.0000
vt 0.0455 0.5012 0.0000
vt 0.0409 0.5226 0.0000
vt 0.0066 0.5151 0.0000
vt 0.0421 0.5477 0.0000
vt 0.1177 0.5322 0.0000
vt 0.1195 0.5559 0.0000
vt 0.1532 0.5630 0.0000
vt 0.1163 0.5769 0.0000
vt 0.1433 0.5992 0.0000
vt 0.1078 0.5937 0.0000
vt 0.1243 0.6255 0.0000
vt 0.0935 0.6033 0.0000
vt 0.0975 0.6389 0.0000
vt 0.0763 0.6025 0.0000
vt 0.0681 0.6388 0.0000
vt 0.0606 0.5909 0.0000
vt 0.0408 0.6241 0.0000
vt 0.0192 0.5964 0.0000
vt 0.0486 0.5720 0.0000
vt 0.0074 0.5575 0.0000
vt 0.1708 0.0924 0.0000
vt 0.2107 0.0850 0.0000
vt 0.2056 0.1046 0.0000
vt 0.2047 0.1283 0.0000
vt 0.1713 0.1367 0.0000
vt 0.2087 0.1492 0.0000
vt 0.1825 0.1725 0.0000
vt 0.2178 0.1656 0.0000
vt 0.2025 0.1980 0.0000
vt 0.2324 0.1747 0.0000
vt 0.2297 0.2104 0.0000
vt 0.2495 0.1733 0.0000
vt 0.2592 0.2093 0.0000
vt 0.2648 0.1611 0.0000
vt 0.2858 0.1936 0.0000
vt 0.3064 0.1651 0.0000
vt 0.2761 0.1418 0.0000
vt 0.2817 0.1172 0.0000
vt 0.3168 0.1257 0.0000
vt 0.3160 0.0834 0.0000
vt 0.2820 0.0921 0.0000
vt 0.3033 0.0463 0.0000
vt 0.2766 0.0709 0.0000
vt 0.2663 0.0551 0.0000
vt 0.1809 0.0542 0.0000
vt 0.2210 0.0626 0.0000
vt 0.2348 0.0499 0.0000
vt 0.2004 0.0246 0.0000
vt 0.2257 0.0081 0.0000
vt 0.2513 0.0473 0.0000
vt 0.2543 0.0067 0.0000
vt 0.2818 0.0194 0.0000
vt 0.0339 0.4448 0.0000
vt 0.0119 0.4747 0.0000
vt 0.3092 0.0431 0.0000
vt 0.2860 0.0141 0.0000
vt 0.0000 0.5142 0.0000
vt 0.3225 0.0822 0.0000
vt 0.0008 0.5585 0.0000
vt 0.3234 0.1265 0.0000
vt 0.0133 0.5995 0.0000
vt 0.3124 0.1680 0.0000
vt 0.0365 0.6293 0.0000
vt 0.2904 0.1986 0.0000
vt 0.0664 0.6454 0.0000
vt 0.2611 0.2158 0.0000
vt 0.0991 0.6455 0.0000
vt 0.2284 0.2171 0.0000
vt 0.1287 0.6306 0.0000
vt 0.1983 0.2033 0.0000
vt 0.1494 0.6021 0.0000
vt 0.1766 0.1756 0.0000
vt 0.1598 0.5638 0.0000
vt 0.1647 0.1377 0.0000
vt 0.1585 0.5196 0.0000
vt 0.1643 0.0935 0.0000
vt 0.1465 0.4780 0.0000
vt 0.1748 0.0515 0.0000
vt 0.1245 0.4471 0.0000
vt 0.1956 0.0198 0.0000
vt 0.0959 0.4300 0.0000
vt 0.2236 0.0016 0.0000
vt 0.0638 0.4296 0.0000
vt 0.2556 0.0000 0.0000
vt 0.0837 0.4850 0.0000
vt 0.0956 0.4951 0.0000
vt 0.2263 0.0667 0.0000
vt 0.2378 0.0561 0.0000
vt 0.1053 0.5119 0.0000
vt 0.2172 0.0838 0.0000
vt 0.1112 0.5334 0.0000
vt 0.2121 0.1055 0.0000
vt 0.1129 0.5556 0.0000
vt 0.2113 0.1278 0.0000
vt 0.1099 0.5749 0.0000
vt 0.2150 0.1469 0.0000
vt 0.1027 0.5892 0.0000
vt 0.2227 0.1609 0.0000
vt 0.0916 0.5966 0.0000
vt 0.2340 0.1680 0.0000
vt 0.0786 0.5960 0.0000
vt 0.2470 0.1669 0.0000
vt 0.0655 0.5864 0.0000
vt 0.2597 0.1568 0.0000
vt 0.0547 0.5693 0.0000
vt 0.2699 0.1393 0.0000
vt 0.0486 0.5467 0.0000
vt 0.2751 0.1164 0.0000
vt 0.0475 0.5232 0.0000
vt 0.2754 0.0929 0.0000
vt 0.0517 0.5037 0.0000
vt 0.2705 0.0736 0.0000
vt 0.0600 0.4899 0.0000
vt 0.2617 0.0601 0.0000
vt 0.0712 0.4835 0.0000
vt 0.2502 0.0541 0.0000
# 208 texture coords

g Number_0
usemtl NumberMat
f 1/1/1 2/2/2 3/3/2 
f 3/3/2 4/4/1 1/1/1 
f 5/5/3 1/1/1 4/4/1 
f 4/4/1 6/6/3 5/5/3 
f 7/7/4 5/5/3 6/6/3 
f 6/6/3 8/8/5 7/7/4 
f 9/9/6 7/7/4 8/8/5 
f 8/8/5 10/10/6 9/9/6 
f 11/11/7 9/9/6 10/10/6 
f 10/10/6 12/12/7 11/11/7 
f 13/13/8 11/11/7 12/12/7 
f 12/12/7 14/14/8 13/13/8 
f 15/15/9 13/16/8 14/17/8 
f 14/17/8 16/18/9 15/15/9 
f 17/19/10 15/15/9 16/18/9 
f 16/18/9 18/20/10 17/19/10 
f 19/21/11 17/22/10 18/23/10 
f 18/23/10 20/24/11 19/21/11 
f 21/25/12 19/21/11 20/24/11 
f 20/24/11 22/26/12 21/25/12 
f 23/27/13 21/25/12 22/26/12 
f 22/26/12 24/28/13 23/27/13 
f 25/29/14 23/27/13 24/28/13 
f 24/28/13 26/30/14 25/29/14 
f 27/31/15 25/29/14 26/30/14 
f 26/30/14 28/32/15 27/31/15 
f 29/33/16 27/31/15 28/32/15 
f 28/32/15 30/34/16 29/33/16 
f 31/35/17 29/36/16 30/37/16 
f 30/37/16 32/38/17 31/35/17 
f 2/39/2 31/35/17 32/38/17 
f 32/38/17 3/40/2 2/39/2 
f 33/41/18 34/42/19 35/43/19 
f 35/43/19 36/44/18 33/41/18 
f 37/45/20 33/41/18 36/44/18 
f 36/44/18 38/46/21 37/45/20 
f 39/47/22 37/45/20 38/46/21 
f 38/46/21 40/48/22 39/47/22 
f 41/49/23 39/47/22 40/48/22 
f 40/48/22 42/50/23 41/49/23 
f 43/51/24 41/49/23 42/50/23 
f 42/50/23 44/52/24 43/51/24 
f 45/53/25 43/51/24 44/52/24 
f 44/52/24 46/54/25 45/53/25 
f 47/55/26 45/56/25 46/57/25 
f 46/57/25 48/58/26 47/55/26 
f 49/59/27 47/55/26 48/58/26 
f 48/58/26 50/60/27 49/59/27 
f 51/61/28 49/62/27 50/63/27 
f 50/63/27 52/64/28 51/61/28 
f 53/65/29 51/61/28 52/64/28 
f 52/64/28 54/66/29 53/65/29 
f 55/67/30 53/65/29 54/66/29 
f 54/66/29 56/68/30 55/67/30 
f 57/69/31 55/67/30 56/68/30 
f 56/68/30 58/70/31 57/69/31 
f 59/71/32 57/69/31 58/70/31 
f 58/70/31 60/72/32 59/71/32 
f 61/73/33 59/71/32 60/72/32 
f 60/72/32 62/74/33 61/73/33 
f 63/75/34 61/76/33 62/77/33 
f 62/77/33 64/78/34 63/75/34 
f 34/79/19 63/75/34 64/78/34 
f 64/78/34 35/80/19 34/79/19 
f 65/81/35 66/82/35 67/83/35 
f 65/81/35 67/83/35 68/84/36 
f 65/81/35 68/84/36 69/85/36 
f 70/86/35 65/81/35 69/85/36 
f 71/87/36 70/86/35 69/85/36 
f 71/87/36 69/85/36 72/88/36 
f 73/89/36 71/87/36 72/88/36 
f 73/89/36 72/88/36 74/90/35 
f 75/91/35 73/89/36 74/90/35 
f 76/92/35 75/91/35 74/90/35 
f 76/92/35 74/90/35 77/93/35 
f 76/92/35 77/93/35 78/94/35 
f 79/95/35 78/94/35 80/96/35 
f 81/97/35 67/83/35 66/82/35 
f 82/98/35 81/97/35 66/82/35 
f 82/98/35 66/82/35 83/99/36 
f 84/100/36 82/98/35 83/99/36 
f 84/100/36 83/99/36 85/101/36 
f 86/102/35 84/100/36 85/101/36 
f 86/102/35 85/101/36 87/103/35 
f 88/104/35 86/102/35 87/103/35 
f 88/104/35 87/103/35 89/105/35 
f 90/106/36 88/104/35 89/105/35 
f 90/106/36 89/105/35 91/107/36 
f 92/108/36 90/106/36 91/107/36 
f 92/108/36 91/107/36 93/109/35 
f 92/108/36 93/109/35 94/110/35 
f 95/111/35 92/108/36 94/110/35 
f 80/96/35 95/111/35 94/110/35 
f 80/96/35 94/110/35 96/112/35 
f 80/96/35 96/112/35 79/95/35 
f 76/92/35 78/94/35 79/95/35 
f 97/113/37 98/114/38 99/115/37 
f 97/113/37 99/115/37 100/116/38 
f 101/117/38 97/113/37 100/116/38 
f 101/117/38 100/116/38 102/118/38 
f 103/119/38 101/117/38 102/118/38 
f 103/119/38 102/118/38 104/120/37 
f 105/121/37 103/119/38 104/120/37 
f 105/121/37 104/120/37 106/122/38 
f 107/123/38 105/121/37 106/122/38 
f 107/123/38 106/122/38 108/124/38 
f 109/125/38 107/123/38 108/124/38 
f 109/125/38 108/124/38 110/126/37 
f 111/127/37 109/125/38 110/126/37 
f 112/128/37 111/127/37 110/126/37 
f 112/128/37 110/126/37 113/129/37 
f 112/128/37 113/129/37 114/130/38 
f 115/131/38 112/128/37 114/130/38 
f 116/132/38 115/131/38 114/130/38 
f 117/133/38 116/132/38 114/130/38 
f 118/134/38 116/132/38 117/133/38 
f 118/134/38 117/133/38 119/135/38 
f 118/134/38 119/135/38 120/136/37 
f 98/114/38 97/113/37 121/137/38 
f 122/138/39 98/114/38 121/137/38 
f 123/139/38 122/138/39 121/137/38 
f 123/139/38 121/137/38 124/140/37 
f 123/139/38 124/140/37 125/141/38 
f 126/142/37 123/139/38 125/141/38 
f 126/142/37 125/141/38 127/143/37 
f 120/136/37 126/142/37 127/143/37 
f 120/136/37 127/143/37 128/144/37 
f 118/134/38 120/136/37 128/144/37 
f 3/145/40 75/91/40 76/92/41 
f 76/92/41 4/146/41 3/145/40 
f 1/147/42 118/134/42 128/144/43 
f 128/144/43 2/148/43 1/147/42 
f 4/146/41 76/92/41 79/95/44 
f 79/95/44 6/149/44 4/146/41 
f 5/150/45 116/132/45 118/134/42 
f 118/134/42 1/147/42 5/150/45 
f 6/149/44 79/95/44 96/112/46 
f 96/112/46 8/151/46 6/149/44 
f 7/152/47 115/131/47 116/132/45 
f 116/132/45 5/150/45 7/152/47 
f 8/151/46 96/112/46 94/110/48 
f 94/110/48 10/153/48 8/151/46 
f 9/154/49 112/128/49 115/131/47 
f 115/131/47 7/152/47 9/154/49 
f 10/153/48 94/110/48 93/109/50 
f 93/109/50 12/155/50 10/153/48 
f 11/156/51 111/127/51 112/128/49 
f 112/128/49 9/154/49 11/156/51 
f 12/155/50 93/109/50 91/107/52 
f 91/107/52 14/157/52 12/155/50 
f 13/158/53 109/125/53 111/127/51 
f 111/127/51 11/156/51 13/158/53 
f 14/157/52 91/107/52 89/105/54 
f 89/105/54 16/159/54 14/157/52 
f 15/160/55 107/123/55 109/125/53 
f 109/125/53 13/158/53 15/160/55 
f 16/159/54 89/105/54 87/103/56 
f 87/103/56 18/161/56 16/159/54 
f 17/162/57 105/121/57 107/123/55 
f 107/123/55 15/160/55 17/162/57 
f 18/161/56 87/103/56 85/101/58 
f 85/101/58 20/163/58 18/161/56 
f 19/164/59 103/119/59 105/121/57 
f 105/121/57 17/162/57 19/164/59 
f 20/163/58 85/101/58 83/99/60 
f 83/99/60 22/165/61 20/163/58 
f 21/166/62 101/117/63 103/119/59 
f 103/119/59 19/164/59 21/166/62 
f 22/165/61 83/99/60 66/82/64 
f 66/82/64 24/167/65 22/165/61 
f 23/168/66 97/113/67 101/117/63 
f 101/117/63 21/166/62 23/168/66 
f 24/167/65 66/82/64 65/81/68 
f 65/81/68 26/169/69 24/167/65 
f 25/170/70 121/137/71 97/113/67 
f 97/113/67 23/168/66 25/170/70 
f 26/169/69 65/81/68 70/86/72 
f 70/86/72 28/171/72 26/169/69 
f 27/172/73 124/140/73 121/137/71 
f 121/137/71 25/170/70 27/172/73 
f 28/171/72 70/86/72 71/87/74 
f 71/87/74 30/173/74 28/171/72 
f 29/174/75 125/141/75 124/140/73 
f 124/140/73 27/172/73 29/174/75 
f 30/173/74 71/87/74 73/89/76 
f 73/89/76 32/175/76 30/173/74 
f 31/176/77 127/143/77 125/141/75 
f 125/141/75 29/174/75 31/176/77 
f 32/175/76 73/89/76 75/91/40 
f 75/91/40 3/145/40 32/175/76 
f 2/148/43 128/144/43 127/143/77 
f 127/143/77 31/176/77 2/148/43 
f 35/177/78 69/85/78 68/84/79 
f 68/84/79 36/178/80 35/177/78 
f 33/179/81 122/138/82 123/139/83 
f 123/139/83 34/180/83 33/179/81 
f 36/178/80 68/84/79 67/83/84 
f 67/83/84 38/181/85 36/178/80 
f 37/182/86 98/114/87 122/138/82 
f 122/138/82 33/179/81 37/182/86 
f 38/181/85 67/83/84 81/97/88 
f 81/97/88 40/183/89 38/181/85 
f 39/184/90 99/115/91 98/114/87 
f 98/114/87 37/182/86 39/184/90 
f 40/183/89 81/97/88 82/98/92 
f 82/98/92 42/185/92 40/183/89 
f 41/186/93 100/116/93 99/115/91 
f 99/115/91 39/184/90 41/186/93 
f 42/185/92 82/98/92 84/100/94 
f 84/100/94 44/187/94 42/185/92 
f 43/188/95 102/118/95 100/116/93 
f 100/116/93 41/186/93 43/188/95 
f 44/187/94 84/100/94 86/102/96 
f 86/102/96 46/189/96 44/187/94 
f 45/190/97 104/120/97 102/118/95 
f 102/118/95 43/188/95 45/190/97 
f 46/189/96 86/102/96 88/104/98 
f 88/104/98 48/191/98 46/189/96 
f 47/192/99 106/122/99 104/120/97 
f 104/120/97 45/190/97 47/192/99 
f 48/191/98 88/104/98 90/106/100 
f 90/106/100 50/193/100 48/191/98 
f 49/194/101 108/124/101 106/122/99 
f 106/122/99 47/192/99 49/194/101 
f 50/193/100 90/106/100 92/108/102 
f 92/108/102 52/195/102 50/193/100 
f 51/196/103 110/126/103 108/124/101 
f 108/124/101 49/194/101 51/196/103 
f 52/195/102 92/108/102 95/111/104 
f 95/111/104 54/197/104 52/195/102 
f 53/198/105 113/129/105 110/126/103 
f 110/126/103 51/196/103 53/198/105 
f 54/197/104 95/111/104 80/96/106 
f 80/96/106 56/199/106 54/197/104 
f 55/200/107 114/130/107 113/129/105 
f 113/129/105 53/198/105 55/200/107 
f 56/199/106 80/96/106 78/94/108 
f 78/94/108 58/201/108 56/199/106 
f 57/202/109 117/133/109 114/130/107 
f 114/130/107 55/200/107 57/202/109 
f 58/201/108 78/94/108 77/93/110 
f 77/93/110 60/203/110 58/201/108 
f 59/204/111 119/135/111 117/133/109 
f 117/133/109 57/202/109 59/204/111 
f 60/203/110 77/93/110 74/90/112 
f 74/90/112 62/205/112 60/203/110 
f 61/206/113 120/136/113 119/135/111 
f 119/135/111 59/204/111 61/206/113 
f 62/205/112 74/90/112 72/88/114 
f 72/88/114 64/207/114 62/205/112 
f 63/208/115 126/142/115 120/136/113 
f 120/136/113 61/206/113 63/208/115 
f 64/207/114 72/88/114 69/85/78 
f 69/85/78 35/177/78 64/207/114 
f 34/180/83 123/139/83 126/142/115 
f 126/142/115 63/208/115 34/180/83 
# 256 faces

