# 3ds Max Wavefront OBJ Exporter v0.97b - (c)2007 guruware
# File Created: 18.10.2014 13:17:09

mtllib number_6.mtl

#
# object Number_6
#

v  -1.5182 22.1677 2.1654
v  3.9489 26.1016 2.1654
v  3.9489 26.1016 -2.1654
v  -1.5182 22.1677 -2.1654
v  -5.1871 17.9372 2.1654
v  -5.1871 17.9372 -2.1654
v  -7.5097 13.6511 2.1654
v  -7.5097 13.6511 -2.1654
v  -8.9380 9.5502 2.1654
v  -8.9380 9.5502 -2.1654
v  -8.4863 3.4939 2.1654
v  -8.4863 3.4939 -2.1654
v  -4.9635 -0.4978 2.1654
v  -4.9635 -0.4978 -2.1654
v  4.0306 -0.1712 2.1653
v  4.0306 -0.1712 -2.1654
v  8.8524 6.9690 2.1654
v  8.8524 6.9690 -2.1654
v  7.7557 14.2040 2.1654
v  7.7557 14.2040 -2.1654
v  -0.4900 15.5375 2.1654
v  -0.4900 15.5375 -2.1654
v  2.9295 19.6840 2.1654
v  2.9295 19.6840 -2.1654
v  6.5812 22.1098 2.1654
v  6.5812 22.1098 -2.1654
v  5.8029 24.5100 2.1654
v  5.8029 24.5100 -2.1654
v  2.4241 10.6466 2.1654
v  0.2838 10.7368 2.1654
v  0.2838 10.7368 -2.1654
v  2.4241 10.6466 -2.1654
v  3.5448 10.1004 2.1654
v  3.5448 10.1004 -2.1654
v  3.8588 8.9284 2.1654
v  3.8588 8.9284 -2.1654
v  3.5792 6.9607 2.1654
v  3.5792 6.9607 -2.1654
v  2.6566 5.0273 2.1654
v  2.6566 5.0273 -2.1654
v  1.0414 3.9584 2.1654
v  1.0414 3.9584 -2.1654
v  -0.7222 3.6809 2.1654
v  -0.7222 3.6809 -2.1654
v  -2.0901 4.1217 2.1653
v  -2.0901 4.1217 -2.1654
v  -3.0149 5.1346 2.1654
v  -3.0149 5.1346 -2.1654
v  -3.4492 6.5734 2.1654
v  -3.4492 6.5734 -2.1654
v  -3.4320 8.1090 2.1654
v  -3.4320 8.1090 -2.1654
v  -3.0020 9.4124 2.1654
v  -3.0020 9.4124 -2.1654
v  -1.8624 10.3371 2.1654
v  -1.8624 10.3371 -2.1654
v  2.6214 11.4264 -2.9528
v  0.1585 11.5142 -2.9528
v  -1.4461 15.1982 -2.9528
v  7.0632 13.5183 -2.9528
v  4.2124 10.6510 -2.9528
v  4.6610 8.9768 -2.9528
v  8.0278 7.1549 -2.9528
v  4.3418 6.7304 -2.9528
v  3.2732 4.4911 -2.9528
v  3.6020 0.6012 -2.9528
v  1.3331 3.2072 -2.9528
v  -0.7851 2.8739 -2.9528
v  -4.6197 0.3026 -2.9528
v  -2.5306 3.4364 -2.9528
v  -3.7170 4.7358 -2.9528
v  -7.7208 3.8165 -2.9528
v  -4.2380 6.4615 -2.9528
v  -8.1406 9.4456 -2.9528
v  -4.2180 8.2398 -2.9528
v  -3.6775 9.8783 -2.9528
v  -6.7870 13.3320 -2.9528
v  -2.2032 11.0746 -2.9528
v  -4.5358 17.4864 -2.9528
v  3.9060 25.1007 -2.9528
v  5.1221 24.0567 -2.9528
v  5.6479 22.4352 -2.9528
v  2.3964 20.2751 -2.9528
v  -0.9836 21.5823 -2.9528
v  5.6479 22.4352 2.9528
v  5.1221 24.0567 2.9528
v  3.9060 25.1007 2.9528
v  2.3964 20.2751 2.9528
v  -0.9836 21.5823 2.9528
v  -1.4461 15.1982 2.9528
v  -4.5358 17.4864 2.9528
v  0.1585 11.5142 2.9528
v  -2.2032 11.0746 2.9528
v  -6.7870 13.3320 2.9528
v  2.6214 11.4264 2.9528
v  7.0632 13.5183 2.9528
v  4.2124 10.6510 2.9528
v  4.6610 8.9768 2.9528
v  8.0278 7.1549 2.9528
v  4.3418 6.7304 2.9528
v  3.2732 4.4911 2.9528
v  3.6020 0.6012 2.9528
v  1.3331 3.2072 2.9528
v  -0.7851 2.8739 2.9528
v  -4.6197 0.3026 2.9528
v  -2.5306 3.4364 2.9528
v  -3.7170 4.7358 2.9528
v  -7.7208 3.8165 2.9528
v  -4.2380 6.4615 2.9528
v  -8.1406 9.4456 2.9528
v  -4.2180 8.2398 2.9528
v  -3.6775 9.8783 2.9528
# 112 vertices

vn -0.6743 0.7384 0.0000
vn 0.0428 0.9991 0.0000
vn -0.8222 0.5692 -0.0000
vn -0.9148 0.4040 0.0000
vn -0.9915 0.1300 0.0000
vn -0.9215 -0.3883 0.0000
vn -0.3947 -0.9188 -0.0000
vn 0.4852 -0.8744 -0.0000
vn 0.9755 -0.2199 -0.0000
vn 0.7106 0.7036 0.0000
vn 0.9357 0.3527 0.0000
vn 0.6697 -0.7426 -0.0000
vn 0.9443 -0.3292 -0.0000
vn 0.8323 0.5543 0.0000
vn -0.2453 -0.9695 -0.0000
vn 0.0709 -0.9975 -0.0000
vn -0.7715 -0.6362 -0.0000
vn -0.9982 -0.0603 -0.0000
vn -0.9573 0.2890 0.0000
vn -0.7546 0.6562 0.0000
vn -0.7546 0.6562 -0.0000
vn -0.3619 0.9322 -0.0000
vn 0.0778 0.9970 -0.0000
vn 0.5407 0.8412 -0.0000
vn 0.5407 0.8412 0.0000
vn 0.8695 0.4939 0.0000
vn 0.9901 0.1405 0.0000
vn 0.9864 -0.1642 -0.0000
vn 0.8231 -0.5679 -0.0000
vn 0.4195 -0.9078 -0.0000
vn 0.0000 0.0000 -1.0000
vn -0.0000 0.0000 -1.0000
vn -0.0000 -0.0000 -1.0000
vn 0.0000 -0.0000 1.0000
vn 0.0000 0.0000 1.0000
vn -0.0000 -0.0000 1.0000
vn 0.0265 0.6174 -0.7862
vn -0.4752 0.5204 -0.7095
vn -0.4752 0.5204 0.7095
vn 0.0265 0.6174 0.7862
vn -0.5797 0.4013 -0.7092
vn -0.5797 0.4013 0.7092
vn -0.6458 0.2852 -0.7083
vn -0.6458 0.2852 0.7083
vn -0.6937 0.0909 -0.7145
vn -0.6937 0.0909 0.7145
vn -0.6340 -0.2671 -0.7258
vn -0.6340 -0.2671 0.7258
vn -0.2646 -0.6161 -0.7419
vn -0.2646 -0.6161 0.7419
vn 0.3229 -0.5819 -0.7465
vn 0.3229 -0.5819 0.7465
vn 0.6649 -0.1499 -0.7317
vn 0.6649 -0.1499 0.7317
vn 0.4580 0.4306 -0.7777
vn 0.4575 0.4423 -0.7714
vn 0.4466 0.4422 0.7778
vn 0.4506 0.4451 0.7739
vn 0.5602 0.2163 -0.7996
vn 0.5523 0.2531 -0.7943
vn 0.5557 0.2291 0.7992
vn 0.5743 0.2148 0.7899
vn 0.4771 -0.5261 -0.7040
vn 0.4709 -0.5223 -0.7110
vn 0.4771 -0.5261 0.7040
vn 0.4709 -0.5223 0.7110
vn 0.5884 -0.2051 -0.7821
vn 0.5884 -0.2051 0.7821
vn 0.5773 0.3844 -0.7204
vn 0.5773 0.3844 0.7204
vn 0.0486 -0.7059 -0.7066
vn 0.0553 -0.7061 -0.7059
vn -0.1711 -0.6793 -0.7136
vn -0.1716 -0.6782 -0.7146
vn -0.1700 -0.6796 0.7137
vn -0.1696 -0.6787 0.7146
vn 0.0538 -0.7053 0.7068
vn 0.0468 -0.7071 0.7056
vn -0.5192 -0.4282 -0.7396
vn -0.5192 -0.4282 0.7396
vn -0.6986 -0.0422 -0.7143
vn -0.6986 -0.0422 0.7143
vn -0.6730 0.2032 -0.7112
vn -0.6730 0.2032 0.7112
vn -0.5236 0.4553 -0.7201
vn -0.5236 0.4553 0.7201
vn -0.2530 0.6515 -0.7152
vn -0.2530 0.6515 0.7152
vn 0.0542 0.6952 -0.7168
vn 0.0542 0.6952 0.7168
vn 0.3758 0.5846 -0.7190
vn 0.3758 0.5846 0.7190
vn 0.6071 0.3448 -0.7159
vn 0.6071 0.3448 0.7159
vn 0.6960 0.0988 -0.7112
vn 0.6960 0.0988 0.7112
vn 0.6934 -0.1154 -0.7113
vn 0.6934 -0.1154 0.7113
vn 0.5699 -0.3932 -0.7215
vn 0.5699 -0.3932 0.7215
vn 0.2919 -0.6318 -0.7181
vn 0.2920 -0.6318 0.7181
# 102 vertex normals

vt 0.8605 0.0563 0.0000
vt 0.8605 0.0000 0.0000
vt 0.8967 0.0000 0.0000
vt 0.8967 0.0563 0.0000
vt 0.8605 0.1019 0.0000
vt 0.8967 0.1019 0.0000
vt 0.8605 0.1386 0.0000
vt 0.8967 0.1386 0.0000
vt 0.8605 0.1683 0.0000
vt 0.8967 0.1683 0.0000
vt 0.8605 0.1948 0.0000
vt 0.8967 0.1948 0.0000
vt 0.7702 0.6421 0.0000
vt 0.7702 0.6126 0.0000
vt 0.8064 0.6126 0.0000
vt 0.8064 0.6421 0.0000
vt 0.7702 0.7173 0.0000
vt 0.8064 0.7173 0.0000
vt 0.7702 0.7576 0.0000
vt 0.8064 0.7576 0.0000
vt 0.8427 0.8790 0.0000
vt 0.8427 0.8178 0.0000
vt 0.8789 0.8178 0.0000
vt 0.8789 0.8790 0.0000
vt 0.9151 0.5950 0.0000
vt 0.9151 0.5252 0.0000
vt 0.9513 0.5252 0.0000
vt 0.9513 0.5950 0.0000
vt 0.4090 0.9230 0.0000
vt 0.4090 0.8780 0.0000
vt 0.4452 0.8780 0.0000
vt 0.4452 0.9230 0.0000
vt 0.4090 0.9580 0.0000
vt 0.4452 0.9580 0.0000
vt 0.4090 0.9694 0.0000
vt 0.4452 0.9694 0.0000
vt 0.2067 0.3199 0.0000
vt 0.2067 0.2994 0.0000
vt 0.2429 0.2994 0.0000
vt 0.2429 0.3199 0.0000
vt 0.8064 0.9906 0.0000
vt 0.8064 0.9727 0.0000
vt 0.8427 0.9727 0.0000
vt 0.8427 0.9906 0.0000
vt 0.8064 1.0000 0.0000
vt 0.8427 1.0000 0.0000
vt 0.0180 0.0853 0.0000
vt 0.0180 0.0751 0.0000
vt 0.0542 0.0751 0.0000
vt 0.0542 0.0853 0.0000
vt 0.0180 0.1006 0.0000
vt 0.0542 0.1006 0.0000
vt 0.0180 0.1142 0.0000
vt 0.0542 0.1142 0.0000
vt 0.6846 0.9780 0.0000
vt 0.6846 0.9619 0.0000
vt 0.7208 0.9619 0.0000
vt 0.7208 0.9780 0.0000
vt 0.6846 0.9916 0.0000
vt 0.7208 0.9916 0.0000
vt 0.6846 0.9991 0.0000
vt 0.7208 0.9991 0.0000
vt 0.5683 0.8952 0.0000
vt 0.5683 0.8868 0.0000
vt 0.6045 0.8868 0.0000
vt 0.6045 0.8952 0.0000
vt 0.5683 0.9073 0.0000
vt 0.6045 0.9073 0.0000
vt 0.5683 0.9201 0.0000
vt 0.6045 0.9201 0.0000
vt 0.5683 0.9310 0.0000
vt 0.6045 0.9310 0.0000
vt 0.5683 0.9387 0.0000
vt 0.6045 0.9387 0.0000
vt 0.8064 0.9548 0.0000
vt 0.8427 0.9548 0.0000
vt 0.5761 0.3373 0.0000
vt 0.5557 0.3342 0.0000
vt 0.5459 0.3020 0.0000
vt 0.6150 0.3242 0.0000
vt 0.5885 0.3452 0.0000
vt 0.5907 0.3596 0.0000
vt 0.6169 0.3780 0.0000
vt 0.5858 0.3779 0.0000
vt 0.5748 0.3955 0.0000
vt 0.5738 0.4281 0.0000
vt 0.5574 0.4043 0.0000
vt 0.5395 0.4050 0.0000
vt 0.5052 0.4227 0.0000
vt 0.5256 0.3987 0.0000
vt 0.5170 0.3867 0.0000
vt 0.4828 0.3905 0.0000
vt 0.5143 0.3719 0.0000
vt 0.4848 0.3433 0.0000
vt 0.5162 0.3571 0.0000
vt 0.5223 0.3440 0.0000
vt 0.4998 0.3123 0.0000
vt 0.5357 0.3355 0.0000
vt 0.5225 0.2800 0.0000
vt 0.6000 0.2249 0.0000
vt 0.6091 0.2348 0.0000
vt 0.6119 0.2487 0.0000
vt 0.5828 0.2635 0.0000
vt 0.5559 0.2494 0.0000
vt 0.3402 0.6906 0.0000
vt 0.3436 0.6767 0.0000
vt 0.3530 0.6672 0.0000
vt 0.3687 0.7065 0.0000
vt 0.3960 0.6934 0.0000
vt 0.4040 0.7464 0.0000
vt 0.4283 0.7253 0.0000
vt 0.3930 0.7781 0.0000
vt 0.4129 0.7803 0.0000
vt 0.4497 0.7585 0.0000
vt 0.3725 0.7804 0.0000
vt 0.3341 0.7658 0.0000
vt 0.3597 0.7879 0.0000
vt 0.3570 0.8021 0.0000
vt 0.3301 0.8195 0.0000
vt 0.3611 0.8207 0.0000
vt 0.3715 0.8387 0.0000
vt 0.3712 0.8713 0.0000
vt 0.3885 0.8481 0.0000
vt 0.4064 0.8495 0.0000
vt 0.4400 0.8685 0.0000
vt 0.4205 0.8437 0.0000
vt 0.4296 0.8321 0.0000
vt 0.4636 0.8373 0.0000
vt 0.4328 0.8174 0.0000
vt 0.4635 0.7900 0.0000
vt 0.4315 0.8026 0.0000
vt 0.4260 0.7893 0.0000
vt 0.6013 0.2167 0.0000
vt 0.5521 0.2440 0.0000
vt 0.4001 0.6882 0.0000
vt 0.3520 0.6589 0.0000
vt 0.5175 0.2756 0.0000
vt 0.4334 0.7211 0.0000
vt 0.4941 0.3090 0.0000
vt 0.4555 0.7554 0.0000
vt 0.4783 0.3417 0.0000
vt 0.4701 0.7887 0.0000
vt 0.4762 0.3924 0.0000
vt 0.4702 0.8395 0.0000
vt 0.5016 0.4290 0.0000
vt 0.4434 0.8750 0.0000
vt 0.5766 0.4350 0.0000
vt 0.3682 0.8780 0.0000
vt 0.6235 0.3803 0.0000
vt 0.3234 0.8216 0.0000
vt 0.6214 0.3192 0.0000
vt 0.3279 0.7605 0.0000
vt 0.5542 0.3001 0.0000
vt 0.3958 0.7442 0.0000
vt 0.5866 0.2690 0.0000
vt 0.3646 0.7118 0.0000
vt 0.6193 0.2523 0.0000
vt 0.3326 0.6939 0.0000
vt 0.6151 0.2317 0.0000
vt 0.3376 0.6734 0.0000
vt 0.5560 0.3407 0.0000
vt 0.5737 0.3435 0.0000
vt 0.3746 0.7868 0.0000
vt 0.3924 0.7847 0.0000
vt 0.5825 0.3492 0.0000
vt 0.3656 0.7921 0.0000
vt 0.5839 0.3592 0.0000
vt 0.3638 0.8020 0.0000
vt 0.5797 0.3753 0.0000
vt 0.3674 0.8183 0.0000
vt 0.5702 0.3904 0.0000
vt 0.3763 0.8338 0.0000
vt 0.5557 0.3978 0.0000
vt 0.3904 0.8417 0.0000
vt 0.5408 0.3984 0.0000
vt 0.4053 0.8429 0.0000
vt 0.5299 0.3934 0.0000
vt 0.4164 0.8383 0.0000
vt 0.6111 0.8810 0.0000
vt 0.6111 0.8919 0.0000
vt 0.5617 0.8919 0.0000
vt 0.5617 0.8810 0.0000
vt 0.6111 0.9063 0.0000
vt 0.5617 0.9063 0.0000
vt 0.6111 0.9212 0.0000
vt 0.5617 0.9212 0.0000
vt 0.6111 0.9349 0.0000
vt 0.5617 0.9349 0.0000
vt 0.5274 0.3486 0.0000
vt 0.5378 0.3420 0.0000
vt 0.4106 0.7866 0.0000
vt 0.4207 0.7936 0.0000
# 192 texture coords

g Number_6
usemtl NumberMat
f 1/1/1 2/2/2 3/3/2 
f 3/3/2 4/4/1 1/1/1 
f 5/5/3 1/1/1 4/4/1 
f 4/4/1 6/6/3 5/5/3 
f 7/7/4 5/5/3 6/6/3 
f 6/6/3 8/8/4 7/7/4 
f 9/9/5 7/7/4 8/8/4 
f 8/8/4 10/10/5 9/9/5 
f 11/11/6 9/9/5 10/10/5 
f 10/10/5 12/12/6 11/11/6 
f 13/13/7 11/14/6 12/15/6 
f 12/15/6 14/16/7 13/13/7 
f 15/17/8 13/13/7 14/16/7 
f 14/16/7 16/18/8 15/17/8 
f 17/19/9 15/17/8 16/18/8 
f 16/18/8 18/20/9 17/19/9 
f 19/21/10 17/22/9 18/23/9 
f 18/23/9 20/24/10 19/21/10 
f 21/25/11 19/26/10 20/27/10 
f 20/27/10 22/28/11 21/25/11 
f 23/29/12 21/30/11 22/31/11 
f 22/31/11 24/32/12 23/29/12 
f 25/33/13 23/29/12 24/32/12 
f 24/32/12 26/34/13 25/33/13 
f 27/35/14 25/33/13 26/34/13 
f 26/34/13 28/36/14 27/35/14 
f 2/37/2 27/38/14 28/39/14 
f 28/39/14 3/40/2 2/37/2 
f 29/41/15 30/42/16 31/43/16 
f 31/43/16 32/44/15 29/41/15 
f 33/45/17 29/41/15 32/44/15 
f 32/44/15 34/46/17 33/45/17 
f 35/47/18 33/48/17 34/49/17 
f 34/49/17 36/50/18 35/47/18 
f 37/51/19 35/47/18 36/50/18 
f 36/50/18 38/52/19 37/51/19 
f 39/53/20 37/51/19 38/52/19 
f 38/52/19 40/54/21 39/53/20 
f 41/55/22 39/56/20 40/57/21 
f 40/57/21 42/58/22 41/55/22 
f 43/59/23 41/55/22 42/58/22 
f 42/58/22 44/60/23 43/59/23 
f 45/61/24 43/59/23 44/60/23 
f 44/60/23 46/62/25 45/61/24 
f 47/63/26 45/64/24 46/65/25 
f 46/65/25 48/66/26 47/63/26 
f 49/67/27 47/63/26 48/66/26 
f 48/66/26 50/68/27 49/67/27 
f 51/69/28 49/67/27 50/68/27 
f 50/68/27 52/70/28 51/69/28 
f 53/71/29 51/69/28 52/70/28 
f 52/70/28 54/72/29 53/71/29 
f 55/73/30 53/71/29 54/72/29 
f 54/72/29 56/74/30 55/73/30 
f 30/42/16 55/75/30 56/76/30 
f 56/76/30 31/43/16 30/42/16 
f 57/77/31 58/78/32 59/79/33 
f 60/80/32 57/77/31 59/79/33 
f 61/81/31 57/77/31 60/80/32 
f 62/82/32 61/81/31 60/80/32 
f 63/83/32 62/82/32 60/80/32 
f 64/84/32 62/82/32 63/83/32 
f 65/85/32 64/84/32 63/83/32 
f 66/86/32 65/85/32 63/83/32 
f 67/87/32 65/85/32 66/86/32 
f 68/88/31 67/87/32 66/86/32 
f 69/89/32 68/88/31 66/86/32 
f 70/90/32 68/88/31 69/89/32 
f 71/91/32 70/90/32 69/89/32 
f 71/91/32 69/89/32 72/92/32 
f 73/93/31 71/91/32 72/92/32 
f 74/94/31 73/93/31 72/92/32 
f 75/95/31 73/93/31 74/94/31 
f 76/96/31 75/95/31 74/94/31 
f 76/96/31 74/94/31 77/97/31 
f 78/98/31 76/96/31 77/97/31 
f 78/98/31 77/97/31 79/99/32 
f 80/100/32 81/101/33 82/102/32 
f 80/100/32 82/102/32 83/103/31 
f 84/104/31 80/100/32 83/103/31 
f 84/104/31 83/103/31 59/79/33 
f 79/99/32 84/104/31 59/79/33 
f 79/99/32 59/79/33 58/78/32 
f 78/98/31 79/99/32 58/78/32 
f 85/105/34 86/106/35 87/107/34 
f 88/108/36 85/105/34 87/107/34 
f 88/108/36 87/107/34 89/109/36 
f 90/110/36 88/108/36 89/109/36 
f 90/110/36 89/109/36 91/111/34 
f 92/112/34 90/110/36 91/111/34 
f 93/113/34 92/112/34 91/111/34 
f 93/113/34 91/111/34 94/114/36 
f 90/110/36 92/112/34 95/115/36 
f 96/116/36 95/115/36 97/117/34 
f 96/116/36 90/110/36 95/115/36 
f 96/116/36 97/117/34 98/118/34 
f 99/119/34 98/118/34 100/120/34 
f 99/119/34 96/116/36 98/118/34 
f 99/119/34 100/120/34 101/121/34 
f 102/122/34 101/121/34 103/123/36 
f 102/122/34 99/119/34 101/121/34 
f 102/122/34 103/123/36 104/124/34 
f 105/125/34 104/124/34 106/126/34 
f 105/125/34 102/122/34 104/124/34 
f 105/125/34 106/126/34 107/127/34 
f 108/128/34 105/125/34 107/127/34 
f 108/128/34 107/127/34 109/129/36 
f 110/130/34 109/129/36 111/131/36 
f 110/130/34 108/128/34 109/129/36 
f 110/130/34 111/131/36 112/132/36 
f 94/114/36 110/130/34 112/132/36 
f 93/113/34 94/114/36 112/132/36 
f 3/133/37 80/100/37 84/104/38 
f 84/104/38 4/134/38 3/133/37 
f 1/135/39 89/109/39 87/107/40 
f 87/107/40 2/136/40 1/135/39 
f 4/134/38 84/104/38 79/99/41 
f 79/99/41 6/137/41 4/134/38 
f 5/138/42 91/111/42 89/109/39 
f 89/109/39 1/135/39 5/138/42 
f 6/137/41 79/99/41 77/97/43 
f 77/97/43 8/139/43 6/137/41 
f 7/140/44 94/114/44 91/111/42 
f 91/111/42 5/138/42 7/140/44 
f 8/139/43 77/97/43 74/94/45 
f 74/94/45 10/141/45 8/139/43 
f 9/142/46 110/130/46 94/114/44 
f 94/114/44 7/140/44 9/142/46 
f 10/141/45 74/94/45 72/92/47 
f 72/92/47 12/143/47 10/141/45 
f 11/144/48 108/128/48 110/130/46 
f 110/130/46 9/142/46 11/144/48 
f 12/143/47 72/92/47 69/89/49 
f 69/89/49 14/145/49 12/143/47 
f 13/146/50 105/125/50 108/128/48 
f 108/128/48 11/144/48 13/146/50 
f 14/145/49 69/89/49 66/86/51 
f 66/86/51 16/147/51 14/145/49 
f 15/148/52 102/122/52 105/125/50 
f 105/125/50 13/146/50 15/148/52 
f 16/147/51 66/86/51 63/83/53 
f 63/83/53 18/149/53 16/147/51 
f 17/150/54 99/119/54 102/122/52 
f 102/122/52 15/148/52 17/150/54 
f 18/149/53 63/83/53 60/80/55 
f 60/80/55 20/151/56 18/149/53 
f 19/152/57 96/116/58 99/119/54 
f 99/119/54 17/150/54 19/152/57 
f 20/151/56 60/80/55 59/79/59 
f 59/79/59 22/153/60 20/151/56 
f 21/154/61 90/110/62 96/116/58 
f 96/116/58 19/152/57 21/154/61 
f 22/153/60 59/79/59 83/103/63 
f 83/103/63 24/155/64 22/153/60 
f 21/154/61 88/108/65 90/110/62 
f 88/108/65 21/154/61 23/156/66 
f 24/155/64 83/103/63 82/102/67 
f 82/102/67 26/157/67 24/155/64 
f 25/158/68 85/105/68 88/108/65 
f 88/108/65 23/156/66 25/158/68 
f 26/157/67 82/102/67 81/101/69 
f 81/101/69 28/159/69 26/157/67 
f 27/160/70 86/106/70 85/105/68 
f 85/105/68 25/158/68 27/160/70 
f 28/159/69 81/101/69 80/100/37 
f 80/100/37 3/133/37 28/159/69 
f 2/136/40 87/107/40 86/106/70 
f 86/106/70 27/160/70 2/136/40 
f 31/161/71 58/78/72 57/77/73 
f 57/77/73 32/162/74 31/161/71 
f 29/163/75 95/115/76 92/112/77 
f 92/112/77 30/164/78 29/163/75 
f 32/162/74 57/77/73 61/81/79 
f 61/81/79 34/165/79 32/162/74 
f 33/166/80 97/117/80 95/115/76 
f 95/115/76 29/163/75 33/166/80 
f 34/165/79 61/81/79 62/82/81 
f 62/82/81 36/167/81 34/165/79 
f 35/168/82 98/118/82 97/117/80 
f 97/117/80 33/166/80 35/168/82 
f 36/167/81 62/82/81 64/84/83 
f 64/84/83 38/169/83 36/167/81 
f 37/170/84 100/120/84 98/118/82 
f 98/118/82 35/168/82 37/170/84 
f 38/169/83 64/84/83 65/85/85 
f 65/85/85 40/171/85 38/169/83 
f 39/172/86 101/121/86 100/120/84 
f 100/120/84 37/170/84 39/172/86 
f 40/171/85 65/85/85 67/87/87 
f 67/87/87 42/173/87 40/171/85 
f 41/174/88 103/123/88 101/121/86 
f 101/121/86 39/172/86 41/174/88 
f 42/173/87 67/87/87 68/88/89 
f 68/88/89 44/175/89 42/173/87 
f 43/176/90 104/124/90 103/123/88 
f 103/123/88 41/174/88 43/176/90 
f 44/175/89 68/88/89 70/90/91 
f 70/90/91 46/177/91 44/175/89 
f 45/178/92 106/126/92 104/124/90 
f 104/124/90 43/176/90 45/178/92 
f 46/65/91 70/179/91 71/180/93 
f 71/180/93 48/66/93 46/65/91 
f 47/63/94 107/181/94 106/182/92 
f 106/182/92 45/64/92 47/63/94 
f 48/66/93 71/180/93 73/183/95 
f 73/183/95 50/68/95 48/66/93 
f 49/67/96 109/184/96 107/181/94 
f 107/181/94 47/63/94 49/67/96 
f 50/68/95 73/183/95 75/185/97 
f 75/185/97 52/70/97 50/68/95 
f 51/69/98 111/186/98 109/184/96 
f 109/184/96 49/67/96 51/69/98 
f 52/70/97 75/185/97 76/187/99 
f 76/187/99 54/72/99 52/70/97 
f 53/71/100 112/188/100 111/186/98 
f 111/186/98 51/69/98 53/71/100 
f 54/189/99 76/96/99 78/98/101 
f 78/98/101 56/190/101 54/189/99 
f 55/191/102 93/113/102 112/132/100 
f 112/132/100 53/192/100 55/191/102 
f 56/190/101 78/98/101 58/78/72 
f 58/78/72 31/161/71 56/190/101 
f 30/164/78 92/112/77 93/113/102 
f 93/113/102 55/191/102 30/164/78 
# 224 faces

