# 3ds Max Wavefront OBJ Exporter v0.97b - (c)2007 guruware
# File Created: 16.10.2014 18:46:30

mtllib house1.mtl

#
# object Box01
#

v  -70.0000 0.0000 -35.0000
v  -70.0000 0.0000 -55.0000
v  70.0000 0.0000 -55.0000
v  -70.0000 0.0000 -10.0000
v  -70.0000 0.0000 10.0000
v  -70.0000 0.0000 35.0000
v  -70.0000 0.0000 55.0000
v  70.0000 0.0000 35.0000
v  70.0000 0.0000 55.0000
v  55.0000 0.0000 55.0000
v  70.0000 0.0000 10.0000
v  70.0000 0.0000 -10.0000
v  70.0000 0.0000 -35.0000
v  30.0000 0.0000 55.0000
v  15.0000 0.0000 55.0000
v  -15.0000 0.0000 55.0000
v  -30.0000 0.0000 55.0000
v  -55.0000 0.0000 55.0000
v  12.2177 1.3808 53.3396
v  12.2177 56.4266 53.3396
v  -12.2177 56.4266 53.3396
v  -12.2177 1.3808 53.3396
v  70.0000 87.0000 -55.0000
v  -70.0000 87.0000 -55.0000
v  -70.0000 137.0000 -0.0000
v  0.0000 137.0000 -0.0000
v  70.0000 137.0000 -0.0000
v  0.0000 122.0000 16.5000
v  70.0000 122.0000 16.5000
v  70.0000 87.0000 55.0000
v  25.0000 87.0000 55.0000
v  -70.0000 122.0000 16.5000
v  -70.0000 87.0000 55.0000
v  -25.0000 87.0000 55.0000
v  0.0000 122.0000 55.0000
v  70.0000 84.0000 55.0000
v  -70.0000 84.0000 55.0000
v  -70.0000 60.0000 55.0000
v  -55.0000 60.0000 55.0000
v  -30.0000 60.0000 55.0000
v  -15.0000 60.0000 55.0000
v  15.0000 60.0000 55.0000
v  30.0000 60.0000 55.0000
v  55.0000 60.0000 55.0000
v  70.0000 60.0000 55.0000
v  55.0000 20.0000 55.0000
v  30.0000 20.0000 55.0000
v  -52.3306 57.2310 55.9045
v  -52.3306 22.7690 55.9045
v  -32.6694 22.7690 55.9045
v  -32.6694 57.2310 55.9045
v  -55.0000 20.0000 55.0000
v  -30.0000 20.0000 55.0000
v  52.2769 57.1774 55.9045
v  32.7231 57.1774 55.9045
v  32.7231 22.8226 55.9045
v  52.2769 22.8226 55.9045
v  -52.3306 57.2310 55.0000
v  -32.6694 57.2310 55.0000
v  -52.3306 22.7690 55.0000
v  -32.6694 22.7690 55.0000
v  32.7231 57.1774 55.0000
v  52.2769 57.1774 55.0000
v  32.7231 22.8226 55.0000
v  52.2769 22.8226 55.0000
v  12.2177 1.3808 55.0000
v  -12.2177 1.3808 55.0000
v  12.2177 56.4266 55.0000
v  -12.2177 56.4266 55.0000
v  -70.0000 84.0000 58.0000
v  -25.0000 84.0000 57.9976
v  70.0000 84.0000 57.9925
v  25.0000 84.0000 57.9949
v  70.0000 84.0000 -58.0000
v  -70.0000 84.0000 -58.0000
v  70.0000 84.0000 -55.0000
v  -70.0000 84.0000 -55.0000
# 77 vertices

vn 0.0000 -1.0000 -0.0000
vn 0.0000 0.0000 1.0000
vn 0.0000 0.7399 -0.6727
vn 0.0000 1.0000 -0.0000
vn 0.0000 0.7399 0.6727
vn 0.8137 0.5812 -0.0000
vn -0.8137 0.5812 -0.0000
vn -1.0000 0.0000 -0.0000
vn 1.0000 0.0000 -0.0000
vn 0.0000 0.7071 0.7071
vn 0.0000 0.7068 0.7074
vn 0.0000 0.7065 0.7077
vn 0.0000 0.7062 0.7080
vn 0.0000 0.7071 -0.7071
# 14 vertex normals

vt 0.9718 0.0787 0.0000
vt 0.9718 0.0904 0.0000
vt 0.9153 0.0904 0.0000
vt 0.9718 0.0670 0.0000
vt 0.9718 0.0554 0.0000
vt 0.9718 0.0437 0.0000
vt 0.9718 0.0320 0.0000
vt 0.9153 0.0437 0.0000
vt 0.9153 0.0320 0.0000
vt 0.9215 0.0320 0.0000
vt 0.9153 0.0554 0.0000
vt 0.9153 0.0670 0.0000
vt 0.9153 0.0787 0.0000
vt 0.9278 0.0320 0.0000
vt 0.9341 0.0320 0.0000
vt 0.9529 0.0320 0.0000
vt 0.9592 0.0320 0.0000
vt 0.9655 0.0320 0.0000
vt 0.5870 0.0102 0.0000
vt 0.5870 0.4041 0.0000
vt 0.4131 0.4041 0.0000
vt 0.4131 0.0102 0.0000
vt 0.0133 0.6490 0.0000
vt 1.0168 0.6490 0.0000
vt 1.0071 0.9927 0.0000
vt 0.5053 0.9926 0.0000
vt 0.0035 0.9926 0.0000
vt 1.0009 0.9988 0.0000
vt 0.5026 0.9988 0.0000
vt 0.5016 0.8742 0.0000
vt 0.9988 0.8742 0.0000
vt 1.0008 0.6344 0.0000
vt 0.6811 0.6344 0.0000
vt 0.0044 0.8742 0.0000
vt 0.0063 0.6344 0.0000
vt 0.3259 0.6344 0.0000
vt 0.6810 0.6344 0.0000
vt 0.5016 0.8740 0.0000
vt 0.5019 0.6344 0.0000
vt 0.5016 0.8741 0.0000
vt 0.3253 0.6343 0.0000
vt 0.5018 0.6344 0.0000
vt 0.9983 0.6014 0.0000
vt 0.0019 0.6014 0.0000
vt 0.0019 0.4297 0.0000
vt 0.1086 0.4297 0.0000
vt 0.2866 0.4297 0.0000
vt 0.3933 0.4297 0.0000
vt 0.6068 0.4297 0.0000
vt 0.7136 0.4297 0.0000
vt 0.8915 0.4297 0.0000
vt 0.9983 0.4297 0.0000
vt 0.8915 0.0003 0.0000
vt 0.8915 0.1434 0.0000
vt 0.7136 0.1434 0.0000
vt 0.7136 0.0003 0.0000
vt 0.1219 0.4034 0.0000
vt 0.1219 0.1632 0.0000
vt 0.2676 0.1632 0.0000
vt 0.2676 0.4034 0.0000
vt 0.0019 0.0003 0.0000
vt 0.1086 0.0003 0.0000
vt 0.1086 0.1434 0.0000
vt 0.3933 0.0003 0.0000
vt 0.2866 0.1434 0.0000
vt 0.2866 0.0003 0.0000
vt 0.9983 0.0003 0.0000
vt 0.6068 0.0003 0.0000
vt 0.8721 0.4031 0.0000
vt 0.7287 0.4036 0.0000
vt 0.7287 0.1642 0.0000
vt 0.8721 0.1636 0.0000
vt 0.1225 0.4099 0.0000
vt 0.2676 0.4097 0.0000
vt 0.2675 0.4100 0.0000
vt 0.1232 0.4102 0.0000
vt 0.1225 0.4037 0.0000
vt 0.2675 0.4037 0.0000
vt 0.1225 0.1627 0.0000
vt 0.2675 0.1627 0.0000
vt 0.7287 0.4105 0.0000
vt 0.8721 0.4103 0.0000
vt 0.8723 0.4031 0.0000
vt 0.7289 0.4036 0.0000
vt 0.7289 0.1640 0.0000
vt 0.8723 0.1635 0.0000
vt 0.4050 0.0092 0.0000
vt 0.5969 0.0092 0.0000
vt 0.5909 0.0099 0.0000
vt 0.5909 0.4036 0.0000
vt 0.4108 0.4036 0.0000
vt 0.4108 0.0099 0.0000
vt 0.0044 0.9988 0.0000
vt 0.0063 0.6126 0.0000
vt 0.3266 0.6125 0.0000
vt 0.0044 0.5979 0.0000
vt 1.0000 0.5979 0.0000
vt 0.9990 0.6093 0.0000
vt 0.6681 0.6094 0.0000
vt 0.3363 0.6094 0.0000
vt 0.0044 0.6094 0.0000
vt 0.6825 0.6123 0.0000
vt 1.0028 0.6121 0.0000
vt 0.0133 0.6057 0.0000
vt 1.0168 0.6057 0.0000
# 105 texture coords

g Box01
usemtl 01___Default
f 1/1/1 2/2/1 3/3/1 
f 4/4/1 1/1/1 3/3/1 
f 5/5/1 4/4/1 3/3/1 
f 6/6/1 5/5/1 3/3/1 
f 7/7/1 6/6/1 3/3/1 
f 8/8/1 9/9/1 10/10/1 
f 11/11/1 8/8/1 10/10/1 
f 12/12/1 11/11/1 10/10/1 
f 13/13/1 12/12/1 10/10/1 
f 3/3/1 13/13/1 10/10/1 
f 3/3/1 10/10/1 14/14/1 
f 3/3/1 14/14/1 15/15/1 
f 3/3/1 15/15/1 16/16/1 
f 3/3/1 16/16/1 17/17/1 
f 3/3/1 17/17/1 18/18/1 
f 7/7/1 3/3/1 18/18/1 
f 19/19/2 20/20/2 21/21/2 
f 21/21/2 22/22/2 19/19/2 
f 23/23/3 24/24/3 25/25/4 
f 23/23/3 25/25/4 26/26/4 
f 27/27/4 23/23/3 26/26/4 
f 27/28/4 26/29/4 28/30/5 
f 28/30/5 29/31/5 27/28/4 
f 30/32/5 29/31/5 28/30/5 
f 28/30/5 31/33/5 30/32/5 
f 32/34/5 33/35/5 34/36/5 
f 34/36/5 28/30/5 32/34/5 
f 31/37/6 28/38/6 35/39/6 
f 28/40/7 34/41/7 35/42/7 
f 36/43/2 37/44/2 38/45/2 
f 36/43/2 38/45/2 39/46/2 
f 36/43/2 39/46/2 40/47/2 
f 36/43/2 40/47/2 41/48/2 
f 36/43/2 41/48/2 42/49/2 
f 36/43/2 42/49/2 43/50/2 
f 36/43/2 43/50/2 44/51/2 
f 45/52/2 36/43/2 44/51/2 
f 10/53/2 46/54/2 47/55/2 
f 47/55/2 14/56/2 10/53/2 
f 48/57/2 49/58/2 50/59/2 
f 50/59/2 51/60/2 48/57/2 
f 38/45/2 7/61/2 18/62/2 
f 38/45/2 18/62/2 52/63/2 
f 39/46/2 38/45/2 52/63/2 
f 16/64/2 41/48/2 40/47/2 
f 16/64/2 40/47/2 53/65/2 
f 17/66/2 16/64/2 53/65/2 
f 9/67/2 45/52/2 44/51/2 
f 9/67/2 44/51/2 46/54/2 
f 10/53/2 9/67/2 46/54/2 
f 42/49/2 15/68/2 14/56/2 
f 42/49/2 14/56/2 47/55/2 
f 43/50/2 42/49/2 47/55/2 
f 18/62/2 17/66/2 53/65/2 
f 53/65/2 52/63/2 18/62/2 
f 54/69/2 55/70/2 56/71/2 
f 56/71/2 57/72/2 54/69/2 
f 40/47/2 39/46/2 58/73/2 
f 58/73/2 59/74/2 40/47/2 
f 39/46/2 52/63/2 60/58/2 
f 60/58/2 58/73/2 39/46/2 
f 52/63/2 53/65/2 61/59/2 
f 61/59/2 60/58/2 52/63/2 
f 53/65/2 40/47/2 59/74/2 
f 59/74/2 61/59/2 53/65/2 
f 59/75/4 58/76/4 48/77/4 
f 48/77/4 51/78/4 59/75/4 
f 58/76/8 60/79/8 49/79/8 
f 49/79/8 48/77/8 58/76/8 
f 60/79/1 61/80/1 50/80/1 
f 50/80/1 49/79/1 60/79/1 
f 61/80/9 59/75/9 51/78/9 
f 51/78/9 50/80/9 61/80/9 
f 44/51/2 43/50/2 62/81/2 
f 62/81/2 63/82/2 44/51/2 
f 43/50/2 47/55/2 64/71/2 
f 64/71/2 62/81/2 43/50/2 
f 47/55/2 46/54/2 65/72/2 
f 65/72/2 64/71/2 47/55/2 
f 46/54/2 44/51/2 63/82/2 
f 63/82/2 65/72/2 46/54/2 
f 63/83/4 62/84/4 55/84/4 
f 55/84/4 54/83/4 63/83/4 
f 62/84/8 64/85/8 56/85/8 
f 56/85/8 55/84/8 62/84/8 
f 64/85/1 65/86/1 57/86/1 
f 57/86/1 56/85/1 64/85/1 
f 65/86/9 63/83/9 54/83/9 
f 54/83/9 57/86/9 65/86/9 
f 16/64/2 15/68/2 66/19/2 
f 66/19/2 67/22/2 16/64/2 
f 15/68/2 42/49/2 68/20/2 
f 68/20/2 66/19/2 15/68/2 
f 42/49/2 41/48/2 69/21/2 
f 69/21/2 68/20/2 42/49/2 
f 41/48/2 16/64/2 67/22/2 
f 67/22/2 69/21/2 41/48/2 
f 67/87/4 66/88/4 19/88/4 
f 19/88/4 22/87/4 67/87/4 
f 66/89/8 68/90/8 20/90/8 
f 20/90/8 19/89/8 66/89/8 
f 68/20/1 69/21/1 21/21/1 
f 21/21/1 20/20/1 68/20/1 
f 69/91/9 67/92/9 22/92/9 
f 22/92/9 21/91/9 69/91/9 
f 25/93/4 32/34/5 28/30/5 
f 28/30/5 26/29/4 25/93/4 
f 34/36/10 33/35/10 70/94/10 
f 70/94/11 71/95/11 34/36/11 
f 37/96/1 36/97/1 72/98/1 
f 37/96/1 72/98/1 73/99/1 
f 37/96/1 73/99/1 71/100/1 
f 37/96/1 71/100/1 70/101/1 
f 30/32/12 31/33/12 73/102/12 
f 73/102/13 72/103/13 30/32/13 
f 31/33/11 34/36/11 71/95/11 
f 71/95/12 73/102/12 31/33/12 
f 24/24/14 23/23/14 74/104/14 
f 74/104/14 75/105/14 24/24/14 
f 76/43/1 77/44/1 75/44/1 
f 75/44/1 74/43/1 76/43/1 
# 121 faces

#
# object laterla
#

v  -25.0000 87.0000 55.0000
v  25.0000 87.0000 55.0000
v  0.0000 122.0000 55.0000
v  70.0000 0.0000 -10.0000
v  70.0000 20.0000 -10.0000
v  70.0000 20.0000 10.0000
v  70.0000 0.0000 10.0000
v  -70.0000 0.0000 10.0000
v  -70.0000 20.0000 10.0000
v  -70.0000 20.0000 -10.0000
v  -70.0000 0.0000 -10.0000
v  70.0000 87.0000 -55.0000
v  70.0000 137.0000 -0.0000
v  70.0000 122.0000 16.5000
v  70.0000 87.0000 55.0000
v  70.0000 87.0000 35.0000
v  70.0000 87.0000 10.0000
v  70.0000 87.0000 -10.0000
v  70.0000 87.0000 -35.0000
v  70.0000 84.0000 -55.0000
v  70.0000 60.0000 -55.0000
v  70.0000 60.0000 -35.0000
v  70.0000 0.0000 -55.0000
v  70.0000 20.0000 -55.0000
v  70.0000 20.0000 -35.0000
v  70.0000 0.0000 -35.0000
v  70.0000 60.0000 55.0000
v  70.0000 20.0000 55.0000
v  70.0000 20.0000 35.0000
v  70.0000 60.0000 35.0000
v  70.5494 57.1751 32.3081
v  70.5494 22.8249 32.3081
v  70.5494 22.8249 12.6919
v  70.5494 57.1751 12.6919
v  -70.0000 84.0000 55.0000
v  -70.0000 87.0000 55.0000
v  -70.0000 87.0000 35.0000
v  -70.0000 60.0000 55.0000
v  -70.0000 60.0000 35.0000
v  -70.0000 0.0000 55.0000
v  -70.0000 20.0000 55.0000
v  -70.0000 20.0000 35.0000
v  -70.0000 0.0000 35.0000
v  -70.0000 60.0000 -55.0000
v  -70.0000 20.0000 -55.0000
v  -70.0000 20.0000 -35.0000
v  -70.0000 60.0000 -35.0000
v  -70.8145 57.4653 -32.7286
v  -70.8145 22.5347 -32.7286
v  -70.8145 22.5347 -12.2714
v  -70.8145 57.4653 -12.2714
v  70.0000 0.0000 35.0000
v  70.5494 57.4653 -32.7119
v  70.5494 57.4653 -12.2881
v  70.5494 22.5347 -12.2881
v  70.5494 22.5347 -32.7119
v  -70.0000 0.0000 -35.0000
v  -70.8145 57.1751 32.3050
v  -70.8145 57.1751 12.6950
v  -70.8145 22.8249 12.6950
v  -70.8145 22.8249 32.3050
v  70.0000 60.0000 10.0000
v  70.0000 57.1751 32.3081
v  70.0000 57.1751 12.6919
v  70.0000 22.8249 32.3081
v  70.0000 22.8249 12.6919
v  70.0000 60.0000 -10.0000
v  70.0000 57.4653 -12.2881
v  70.0000 57.4653 -32.7119
v  70.0000 22.5347 -12.2881
v  70.0000 22.5347 -32.7119
v  -70.0000 60.0000 10.0000
v  -70.0000 57.1751 12.6950
v  -70.0000 57.1751 32.3050
v  -70.0000 22.8249 12.6950
v  -70.0000 22.8249 32.3050
v  -70.0000 60.0000 -10.0000
v  -70.0000 57.4653 -32.7286
v  -70.0000 57.4653 -12.2714
v  -70.0000 22.5347 -32.7286
v  -70.0000 22.5347 -12.2714
v  -70.0000 84.0000 58.0000
v  70.0000 84.0000 55.0000
v  70.0000 84.0000 57.9925
v  70.0000 84.0000 -58.0000
v  -70.0000 84.0000 -55.0000
v  -70.0000 87.0000 -55.0000
v  -70.0000 84.0000 -58.0000
v  -70.0000 122.0000 16.5000
v  -70.0000 137.0000 -0.0000
v  -70.0000 87.0000 -35.0000
v  -70.0000 87.0000 -10.0000
v  -70.0000 87.0000 10.0000
v  -70.0000 0.0000 -55.0000
v  70.0000 0.0000 55.0000
# 95 vertices

vn 0.0000 0.0000 1.0000
vn 1.0000 0.0000 -0.0000
vn -1.0000 0.0000 -0.0000
vn 0.0000 1.0000 -0.0000
vn 0.0000 -1.0000 -0.0000
vn 0.0000 0.0000 -1.0000
vn 0.0000 -0.0000 -1.0000
# 7 vertex normals

vt 0.4930 0.9969 0.0000
vt 0.0053 0.6119 0.0000
vt 0.0975 0.9969 0.0000
vt 0.6082 0.0011 0.0000
vt 0.6086 0.1440 0.0000
vt 0.3957 0.1433 0.0000
vt 0.3952 0.0004 0.0000
vt 0.6056 -0.0001 0.0000
vt 0.6056 0.1425 0.0000
vt 0.3945 0.1425 0.0000
vt 0.3945 -0.0001 0.0000
vt 0.9998 0.6011 0.0000
vt 0.5007 0.9995 0.0000
vt 0.3295 0.8623 0.0000
vt 0.0017 0.6011 0.0000
vt 0.2137 0.6005 0.0000
vt 0.3952 0.6004 0.0000
vt 0.6082 0.6011 0.0000
vt 0.7906 0.6011 0.0000
vt 0.9998 0.5804 0.0000
vt 0.9988 0.4182 0.0000
vt 0.7896 0.4182 0.0000
vt 0.9998 0.0011 0.0000
vt 1.0002 0.1440 0.0000
vt 0.7910 0.1440 0.0000
vt 0.7906 0.0011 0.0000
vt 0.0007 0.4182 0.0000
vt 0.0021 0.1440 0.0000
vt 0.2141 0.1434 0.0000
vt 0.2127 0.4176 0.0000
vt 0.2317 0.3989 0.0000
vt 0.2331 0.1637 0.0000
vt 0.3739 0.1628 0.0000
vt 0.3725 0.3980 0.0000
vt 1.0011 0.5798 0.0000
vt 1.0011 0.6005 0.0000
vt 0.7916 0.6005 0.0000
vt 1.0011 0.4186 0.0000
vt 0.7916 0.4186 0.0000
vt 1.0011 -0.0001 0.0000
vt 1.0011 0.1425 0.0000
vt 0.7916 0.1425 0.0000
vt 0.7916 -0.0001 0.0000
vt 0.0012 0.4186 0.0000
vt 0.0012 0.1425 0.0000
vt 0.2145 0.1425 0.0000
vt 0.2145 0.4186 0.0000
vt 0.2328 0.4019 0.0000
vt 0.2328 0.1607 0.0000
vt 0.3739 0.1600 0.0000
vt 0.3739 0.4011 0.0000
vt 0.2137 0.0005 0.0000
vt 0.7689 0.4007 0.0000
vt 0.6280 0.4007 0.0000
vt 0.6294 0.1614 0.0000
vt 0.7703 0.1614 0.0000
vt 0.2145 -0.0001 0.0000
vt 0.7671 0.3991 0.0000
vt 0.6300 0.3991 0.0000
vt 0.6300 0.1620 0.0000
vt 0.7671 0.1620 0.0000
vt 0.3943 0.4175 0.0000
vt 0.2286 0.1552 0.0000
vt 0.3856 0.1793 0.0000
vt 0.3842 0.3526 0.0000
vt 0.6072 0.4182 0.0000
vt 0.6172 0.2049 0.0000
vt 0.7727 0.2299 0.0000
vt 0.7713 0.4533 0.0000
vt 0.6056 0.4186 0.0000
vt 0.6135 0.5045 0.0000
vt 0.6135 0.2545 0.0000
vt 0.7723 0.2545 0.0000
vt 0.3945 0.4186 0.0000
vt 0.2315 0.5045 0.0000
vt 0.2292 0.2553 0.0000
vt 0.3843 0.2545 0.0000
vt 0.9991 0.5779 0.0000
vt 0.0000 0.5845 0.0000
vt 0.0043 0.5997 0.0000
vt -0.0003 0.5818 0.0000
vt 1.0019 0.5804 0.0000
vt 0.0012 0.5798 0.0000
vt 0.0012 0.6005 0.0000
vt -0.0005 0.5788 0.0000
vt 0.6634 0.8699 0.0000
vt 0.5012 0.9992 0.0000
vt 0.2145 0.6005 0.0000
vt 0.3945 0.6005 0.0000
vt 0.6056 0.6005 0.0000
vt 0.0012 -0.0001 0.0000
vt 0.0017 0.0011 0.0000
vt 0.0017 0.5804 0.0000
# 93 texture coords

g laterla
usemtl 02___Default
f 78/106/15 79/107/15 80/108/15 
f 81/109/16 82/110/16 83/111/16 
f 83/111/16 84/112/16 81/109/16 
f 85/113/17 86/114/17 87/115/17 
f 87/115/17 88/116/17 85/113/17 
f 89/117/16 90/118/16 91/119/16 
f 91/119/16 92/120/16 93/121/16 
f 91/119/16 93/121/16 94/122/16 
f 91/119/16 94/122/16 95/123/16 
f 91/119/16 95/123/16 96/124/16 
f 89/117/16 91/119/16 96/124/16 
f 97/125/16 89/117/16 96/124/16 
f 98/126/16 97/125/16 96/124/16 
f 98/126/16 96/124/16 99/127/16 
f 100/128/16 101/129/16 102/130/16 
f 102/130/16 103/131/16 100/128/16 
f 103/131/16 102/130/16 82/110/16 
f 82/110/16 81/109/16 103/131/16 
f 104/132/16 105/133/16 106/134/16 
f 106/134/16 107/135/16 104/132/16 
f 108/136/16 109/137/16 110/138/16 
f 110/138/16 111/139/16 108/136/16 
f 112/140/17 113/141/17 114/142/17 
f 115/143/17 112/140/17 114/142/17 
f 115/143/17 114/142/17 116/144/17 
f 117/145/17 118/146/17 119/147/17 
f 119/147/17 120/148/17 117/145/17 
f 120/148/17 119/147/17 86/114/17 
f 86/114/17 85/113/17 120/148/17 
f 121/149/17 122/150/17 123/151/17 
f 123/151/17 124/152/17 121/149/17 
f 125/153/17 126/154/17 127/155/17 
f 127/155/17 128/156/17 125/153/17 
f 129/157/16 84/112/16 83/111/16 
f 83/111/16 106/134/16 129/157/16 
f 130/158/16 131/159/16 132/160/16 
f 132/160/16 133/161/16 130/158/16 
f 134/162/17 88/116/17 87/115/17 
f 87/115/17 123/151/17 134/162/17 
f 135/163/17 136/164/17 137/165/17 
f 137/165/17 138/166/17 135/163/17 
f 139/167/16 107/135/16 140/136/16 
f 140/136/16 141/139/16 139/167/16 
f 107/135/16 106/134/16 142/137/16 
f 142/137/16 140/136/16 107/135/16 
f 106/134/16 83/111/16 143/138/16 
f 143/138/16 142/137/16 106/134/16 
f 83/111/16 139/167/16 141/139/16 
f 141/139/16 143/138/16 83/111/16 
f 141/139/18 140/136/18 108/136/18 
f 108/136/18 111/139/18 141/139/18 
f 140/136/15 142/137/15 109/137/15 
f 109/137/15 108/136/15 140/136/15 
f 142/168/19 143/169/19 110/169/19 
f 110/169/19 109/168/19 142/168/19 
f 143/169/20 141/170/20 111/170/20 
f 111/170/20 110/169/20 143/169/20 
f 99/127/16 144/171/16 145/159/16 
f 145/159/16 146/158/16 99/127/16 
f 144/171/16 82/110/16 147/160/16 
f 147/160/16 145/159/16 144/171/16 
f 82/110/16 102/130/16 148/161/16 
f 148/161/16 147/160/16 82/110/16 
f 102/130/16 99/127/16 146/158/16 
f 146/158/16 148/161/16 102/130/16 
f 146/158/18 145/159/18 131/159/18 
f 131/159/18 130/158/18 146/158/18 
f 145/159/15 147/160/15 132/160/15 
f 132/160/15 131/159/15 145/159/15 
f 147/172/19 148/173/19 133/173/19 
f 133/173/19 132/172/19 147/172/19 
f 148/173/20 146/174/20 130/174/20 
f 130/174/20 133/173/20 148/173/20 
f 116/144/17 149/175/17 150/164/17 
f 150/164/17 151/163/17 116/144/17 
f 149/175/17 86/114/17 152/165/17 
f 152/165/17 150/164/17 149/175/17 
f 86/114/17 119/147/17 153/166/17 
f 153/166/17 152/165/17 86/114/17 
f 119/147/17 116/144/17 151/163/17 
f 151/163/17 153/166/17 119/147/17 
f 151/163/18 150/164/18 136/164/18 
f 136/164/18 135/163/18 151/163/18 
f 150/176/21 152/177/21 137/177/21 
f 137/177/21 136/176/21 150/176/21 
f 152/177/19 153/178/19 138/178/19 
f 138/178/19 137/177/19 152/177/19 
f 153/166/15 151/163/15 135/163/15 
f 135/163/15 138/166/15 153/166/15 
f 154/179/17 124/152/17 155/153/17 
f 155/153/17 156/156/17 154/179/17 
f 124/152/17 123/151/17 157/154/17 
f 157/154/17 155/153/17 124/152/17 
f 123/151/17 87/115/17 158/155/17 
f 158/155/17 157/154/17 123/151/17 
f 87/115/17 154/179/17 156/156/17 
f 156/156/17 158/155/17 87/115/17 
f 156/156/18 155/153/18 125/153/18 
f 125/153/18 128/156/18 156/156/18 
f 155/180/20 157/181/20 126/181/20 
f 126/181/20 125/180/20 155/180/20 
f 157/181/19 158/182/19 127/182/19 
f 127/182/19 126/181/19 157/181/19 
f 158/155/15 156/156/15 128/156/15 
f 128/156/15 127/155/15 158/155/15 
f 113/141/17 112/140/17 159/183/17 
f 160/184/16 92/185/16 161/186/16 
f 89/117/16 97/125/16 162/187/16 
f 163/188/17 164/189/17 165/190/17 
f 166/191/17 167/192/17 164/189/17 
f 166/191/17 164/189/17 168/193/17 
f 166/191/17 168/193/17 169/194/17 
f 166/191/17 169/194/17 170/195/17 
f 166/191/17 170/195/17 114/142/17 
f 113/141/17 166/191/17 114/142/17 
f 170/195/17 149/175/17 116/144/17 
f 116/144/17 114/142/17 170/195/17 
f 169/194/17 154/179/17 149/175/17 
f 149/175/17 170/195/17 169/194/17 
f 169/194/17 168/193/17 124/152/17 
f 124/152/17 154/179/17 169/194/17 
f 168/193/17 164/189/17 163/188/17 
f 163/188/17 121/149/17 124/152/17 
f 168/193/17 163/188/17 124/152/17 
f 171/196/17 134/162/17 123/151/17 
f 123/151/17 122/150/17 171/196/17 
f 149/175/17 154/179/17 87/115/17 
f 87/115/17 86/114/17 149/175/17 
f 115/143/17 116/144/17 119/147/17 
f 119/147/17 118/146/17 115/143/17 
f 172/197/16 129/157/16 106/134/16 
f 106/134/16 105/133/16 172/197/16 
f 144/171/16 139/167/16 83/111/16 
f 83/111/16 82/110/16 144/171/16 
f 98/126/16 99/127/16 102/130/16 
f 102/130/16 101/129/16 98/126/16 
f 95/123/16 144/171/16 99/127/16 
f 99/127/16 96/124/16 95/123/16 
f 94/122/16 139/167/16 144/171/16 
f 144/171/16 95/123/16 94/122/16 
f 94/122/16 93/121/16 107/135/16 
f 107/135/16 139/167/16 94/122/16 
f 93/121/16 92/120/16 160/198/16 
f 160/198/16 104/132/16 107/135/16 
f 93/121/16 160/198/16 107/135/16 
# 145 faces

#
# object back
#

v  -70.0000 60.0000 -55.0000
v  -70.0000 84.0000 -55.0000
v  70.0000 84.0000 -55.0000
v  -70.0000 0.0000 -55.0000
v  70.0000 60.0000 -55.0000
v  70.0000 0.0000 -55.0000
# 6 vertices

vn 0.0000 0.0000 -1.0000
# 1 vertex normals

vt 1.0004 0.7127 0.0000
vt 1.0006 0.9979 0.0000
vt 0.0000 1.0000 0.0000
vt 0.9998 -0.0000 0.0000
vt -0.0002 0.7149 0.0000
vt -0.0007 0.0021 0.0000
# 6 texture coords

g back
usemtl 03___Default
f 173/199/22 174/200/22 175/201/22 
f 176/202/22 173/199/22 175/201/22 
f 176/202/22 175/201/22 177/203/22 
f 178/204/22 176/202/22 177/203/22 
# 4 faces

