# 3ds Max Wavefront OBJ Exporter v0.97b - (c)2007 guruware
# File Created: 18.10.2014 13:17:25

mtllib number_7.mtl

#
# object Number_7
#

v  -1.8530 -0.9935 2.1653
v  -5.1178 -0.7400 2.1653
v  -5.1178 -0.7400 -2.1654
v  -1.8530 -0.9935 -2.1654
v  0.7834 -0.4128 2.1654
v  0.7834 -0.4128 -2.1654
v  9.1797 21.5754 2.1654
v  9.1797 21.5754 -2.1654
v  9.1669 24.2035 2.1654
v  9.1669 24.2035 -2.1654
v  7.6485 25.1710 2.1654
v  7.6485 25.1710 -2.1654
v  -7.6812 24.5860 2.1654
v  -7.6812 24.5860 -2.1654
v  -8.2235 21.8506 2.1654
v  -8.2235 21.8505 -2.1654
v  -8.0946 18.9087 2.1654
v  -8.0946 18.9087 -2.1654
v  2.2979 19.1665 2.1654
v  2.2979 19.1665 -2.1654
v  7.4328 24.3748 -2.9528
v  8.3816 23.7703 -2.9528
v  8.3916 21.7188 -2.9528
v  0.1993 0.2648 -2.9528
v  -4.0152 -0.0359 -2.9528
v  3.4421 19.9825 -2.9528
v  -1.9084 -0.1994 -2.9528
v  -7.0297 23.8229 -2.9528
v  -7.3417 19.7150 -2.9528
v  -7.4327 21.7904 -2.9528
v  -7.0297 23.8229 2.9528
v  -7.3417 19.7150 2.9528
v  3.4421 19.9825 2.9528
v  0.1993 0.2648 2.9528
v  -4.0152 -0.0359 2.9528
v  -1.9084 -0.1994 2.9528
v  8.3916 21.7188 2.9528
v  8.3816 23.7703 2.9528
v  7.4328 24.3748 2.9528
v  -7.4327 21.7904 2.9528
# 40 vertices

vn 0.0696 -0.9976 -0.0000
vn -0.8428 -0.5383 -0.0000
vn 0.6529 -0.7574 -0.0000
vn 0.9839 -0.1790 0.0000
vn 0.8756 0.4831 0.0000
vn 0.2615 0.9652 0.0000
vn -0.6493 0.7606 0.0000
vn -0.9971 0.0759 0.0000
vn -0.9971 0.0759 -0.0000
vn -0.6825 -0.7309 0.0000
vn -0.8142 -0.5806 0.0000
vn 0.0000 0.0000 -1.0000
vn -0.0000 0.0000 -1.0000
vn -0.0000 -0.0000 1.0000
vn 0.0000 -0.0000 1.0000
vn 0.0000 0.0000 1.0000
vn -0.4346 -0.2776 -0.8568
vn 0.0490 -0.7016 -0.7109
vn 0.0490 -0.7015 0.7109
vn -0.4346 -0.2776 0.8568
vn 0.4314 -0.5004 -0.7507
vn 0.4314 -0.5004 0.7507
vn 0.6897 -0.1255 -0.7132
vn 0.6897 -0.1255 0.7132
vn 0.5777 0.3187 -0.7515
vn 0.5777 0.3187 0.7515
vn 0.1806 0.6664 -0.7234
vn 0.1806 0.6664 0.7234
vn -0.4008 0.4695 -0.7867
vn -0.4008 0.4695 0.7867
vn -0.7025 0.0535 -0.7096
vn -0.7025 0.0535 0.7096
vn -0.3965 -0.4246 -0.8139
vn -0.3965 -0.4246 0.8139
vn -0.3965 -0.4247 0.8139
vn -0.3979 -0.2838 -0.8724
vn -0.3979 -0.2838 0.8724
# 37 vertex normals

vt 0.0613 0.5411 0.0000
vt 0.0613 0.5138 0.0000
vt 0.0975 0.5138 0.0000
vt 0.0975 0.5411 0.0000
vt 0.0613 0.5627 0.0000
vt 0.0975 0.5627 0.0000
vt 0.7815 0.1839 0.0000
vt 0.7815 0.0000 0.0000
vt 0.8177 0.0000 0.0000
vt 0.8177 0.1839 0.0000
vt 0.7815 0.2058 0.0000
vt 0.8177 0.2058 0.0000
vt 0.7815 0.2139 0.0000
vt 0.8177 0.2139 0.0000
vt 0.9329 0.1282 0.0000
vt 0.9329 0.0000 0.0000
vt 0.9691 0.0000 0.0000
vt 0.9691 0.1282 0.0000
vt 0.9166 0.6282 0.0000
vt 0.9395 0.6282 0.0000
vt 0.9395 0.6644 0.0000
vt 0.9166 0.6644 0.0000
vt 0.8920 0.6282 0.0000
vt 0.8920 0.6644 0.0000
vt 0.4827 0.9679 0.0000
vt 0.4827 0.8810 0.0000
vt 0.5190 0.8810 0.0000
vt 0.5190 0.9679 0.0000
vt 0.7702 0.6126 0.0000
vt 0.7702 0.4350 0.0000
vt 0.8064 0.4350 0.0000
vt 0.8064 0.6126 0.0000
vt 0.7497 0.2234 0.0000
vt 0.7575 0.2287 0.0000
vt 0.7569 0.2459 0.0000
vt 0.6814 0.4225 0.0000
vt 0.6461 0.4236 0.0000
vt 0.7150 0.2588 0.0000
vt 0.6636 0.4256 0.0000
vt 0.6287 0.2232 0.0000
vt 0.6248 0.2575 0.0000
vt 0.6247 0.2401 0.0000
vt 0.7697 0.0067 0.0000
vt 0.7736 0.0409 0.0000
vt 0.6834 0.0420 0.0000
vt 0.7166 0.2058 0.0000
vt 0.7520 0.2070 0.0000
vt 0.7344 0.2090 0.0000
vt 0.6415 0.0291 0.0000
vt 0.6409 0.0119 0.0000
vt 0.6487 0.0066 0.0000
vt 0.7737 0.0235 0.0000
vt 0.6366 0.4291 0.0000
vt 0.6638 0.4323 0.0000
vt 0.7342 0.2157 0.0000
vt 0.7614 0.2125 0.0000
vt 0.6861 0.4283 0.0000
vt 0.7120 0.2116 0.0000
vt 0.8243 0.0057 0.0000
vt 0.8243 0.1851 0.0000
vt 0.7749 0.1851 0.0000
vt 0.7749 0.0057 0.0000
vt 0.8243 0.2022 0.0000
vt 0.7749 0.2022 0.0000
vt 0.7642 0.2254 0.0000
vt 0.7518 0.2168 0.0000
vt 0.6466 0.0000 0.0000
vt 0.6342 0.0086 0.0000
vt 0.6235 0.2167 0.0000
vt 0.7749 0.0001 0.0000
vt 0.9331 0.6710 0.0000
vt 0.9161 0.6710 0.0000
vt 0.9161 0.6216 0.0000
vt 0.9331 0.6216 0.0000
vt 0.8988 0.6710 0.0000
vt 0.8988 0.6216 0.0000
vt 0.5255 0.8873 0.0000
vt 0.5255 0.9775 0.0000
vt 0.4762 0.9775 0.0000
vt 0.4762 0.8873 0.0000
vt 0.7051 0.2652 0.0000
vt 0.6932 0.0485 0.0000
# 82 texture coords

g Number_7
usemtl NumberMat
f 1/1/1 2/2/2 3/3/2 
f 3/3/2 4/4/1 1/1/1 
f 5/5/3 1/1/1 4/4/1 
f 4/4/1 6/6/3 5/5/3 
f 7/7/4 5/8/3 6/9/3 
f 6/9/3 8/10/4 7/7/4 
f 9/11/5 7/7/4 8/10/4 
f 8/10/4 10/12/5 9/11/5 
f 11/13/6 9/11/5 10/12/5 
f 10/12/5 12/14/6 11/13/6 
f 13/15/7 11/16/6 12/17/6 
f 12/17/6 14/18/7 13/15/7 
f 15/19/8 13/20/7 14/21/7 
f 14/21/7 16/22/9 15/19/8 
f 17/23/10 15/19/8 16/22/9 
f 16/22/9 18/24/10 17/23/10 
f 19/25/11 17/26/10 18/27/10 
f 18/27/10 20/28/11 19/25/11 
f 2/29/2 19/30/11 20/31/11 
f 20/31/11 3/32/2 2/29/2 
f 21/33/12 22/34/12 23/35/13 
f 24/36/13 25/37/13 26/38/13 
f 24/36/13 27/39/12 25/37/13 
f 23/35/13 24/36/13 26/38/13 
f 28/40/12 23/35/13 26/38/13 
f 28/40/12 21/33/12 23/35/13 
f 29/41/12 28/40/12 26/38/13 
f 30/42/12 28/40/12 29/41/12 
f 31/43/14 32/44/14 33/45/15 
f 34/46/15 35/47/15 36/48/16 
f 33/45/15 35/47/15 34/46/15 
f 33/45/15 34/46/15 37/49/15 
f 37/49/15 38/50/15 39/51/15 
f 31/43/14 37/49/15 39/51/15 
f 33/45/15 37/49/15 31/43/14 
f 40/52/14 32/44/14 31/43/14 
f 3/53/17 25/37/17 27/39/18 
f 27/39/18 4/54/18 3/53/17 
f 1/55/19 36/48/19 35/47/20 
f 35/47/20 2/56/20 1/55/19 
f 4/54/18 27/39/18 24/36/21 
f 24/36/21 6/57/21 4/54/18 
f 5/58/22 34/46/22 36/48/19 
f 36/48/19 1/55/19 5/58/22 
f 6/9/21 24/59/21 23/60/23 
f 23/60/23 8/10/23 6/9/21 
f 7/7/24 37/61/24 34/62/22 
f 34/62/22 5/8/22 7/7/24 
f 8/10/23 23/60/23 22/63/25 
f 22/63/25 10/12/25 8/10/23 
f 9/11/26 38/64/26 37/61/24 
f 37/61/24 7/7/24 9/11/26 
f 10/65/25 22/34/25 21/33/27 
f 21/33/27 12/66/27 10/65/25 
f 11/67/28 39/51/28 38/50/26 
f 38/50/26 9/68/26 11/67/28 
f 12/66/27 21/33/27 28/40/29 
f 28/40/29 14/69/29 12/66/27 
f 13/70/30 31/43/30 39/51/28 
f 39/51/28 11/67/28 13/70/30 
f 14/21/29 28/71/29 30/72/31 
f 30/72/31 16/22/31 14/21/29 
f 15/19/32 40/73/32 31/74/30 
f 31/74/30 13/20/30 15/19/32 
f 16/22/31 30/72/31 29/75/33 
f 29/75/33 18/24/33 16/22/31 
f 17/23/34 32/76/35 40/73/32 
f 40/73/32 15/19/32 17/23/34 
f 18/27/33 29/77/33 26/78/36 
f 26/78/36 20/28/36 18/27/33 
f 19/25/37 33/79/37 32/80/35 
f 32/80/35 17/26/34 19/25/37 
f 20/81/36 26/38/36 25/37/17 
f 25/37/17 3/53/17 20/81/36 
f 2/56/20 35/47/20 33/45/37 
f 33/45/37 19/82/37 2/56/20 
# 76 faces

