# 3ds Max Wavefront OBJ Exporter v0.97b - (c)2007 guruware
# File Created: 18.10.2014 13:15:27

mtllib number_4.mtl

#
# object Number_4
#

v  -11.3798 8.9236 2.1654
v  -0.5229 24.1844 2.1654
v  -0.5229 24.1844 -2.1654
v  -11.3798 8.9236 -2.1654
v  -11.8272 6.3385 2.1654
v  -11.8272 6.3385 -2.1654
v  -10.8982 4.0546 2.1654
v  -10.8982 4.0546 -2.1654
v  -0.7813 4.2262 2.1654
v  -0.7813 4.2262 -2.1654
v  -0.9363 -0.6427 2.1654
v  -0.9363 -0.6427 -2.1654
v  1.7006 -1.1029 2.1654
v  1.7006 -1.1029 -2.1654
v  4.4832 -0.5911 2.1654
v  4.4832 -0.5911 -2.1654
v  4.6038 4.2779 2.1654
v  4.6038 4.2779 -2.1654
v  6.4105 4.3296 2.1654
v  6.4105 4.3296 -2.1654
v  6.9783 6.9448 2.1654
v  6.9783 6.9448 -2.1654
v  6.5483 9.5603 2.1654
v  6.5483 9.5603 -2.1654
v  5.0166 9.5775 2.1654
v  5.0166 9.5775 -2.1654
v  5.5161 24.4600 2.1654
v  5.5161 24.4600 -2.1654
v  1.9588 24.9930 2.1654
v  1.9588 24.9930 -2.1654
v  -5.6847 9.1124 2.1654
v  -0.4202 9.1985 2.1654
v  -0.4202 9.1985 -2.1654
v  -5.6847 9.1124 -2.1654
v  0.1648 17.7154 2.1654
v  0.1648 17.7154 -2.1654
v  4.2026 8.7992 -2.9528
v  5.8786 8.7803 -2.9528
v  6.1770 6.9651 -2.9528
v  3.8351 5.0436 -2.9528
v  3.7119 0.0677 -2.9528
v  1.6969 -0.3029 -2.9528
v  -0.1276 0.0154 -2.9528
v  -0.1076 5.0116 -2.9528
v  5.7718 5.0990 -2.9528
v  0.1395 8.4132 -2.9528
v  1.1498 20.5644 -2.9528
v  -7.1891 8.3003 -2.9528
v  -10.3721 4.8510 -2.9528
v  -11.0129 6.4264 -2.9528
v  -10.6345 8.6130 -2.9528
v  -0.0319 23.5162 -2.9528
v  2.0260 24.1868 -2.9528
v  4.7056 23.7852 -2.9528
v  1.1498 20.5644 2.9528
v  4.7056 23.7852 2.9528
v  2.0260 24.1868 2.9528
v  -0.0319 23.5162 2.9528
v  -0.1076 5.0116 2.9528
v  0.1395 8.4132 2.9528
v  -7.1891 8.3003 2.9528
v  -10.3721 4.8510 2.9528
v  -11.0129 6.4264 2.9528
v  -10.6345 8.6129 2.9528
v  4.2026 8.7992 2.9528
v  -0.1276 0.0154 2.9528
v  1.6969 -0.3029 2.9528
v  3.7119 0.0677 2.9528
v  3.8351 5.0436 2.9528
v  6.1770 6.9651 2.9528
v  5.7718 5.0990 2.9528
v  5.8786 8.7803 2.9528
# 72 vertices

vn -0.9231 0.3847 0.0000
vn -0.5921 0.8058 0.0000
vn -0.9942 -0.1073 -0.0000
vn -0.5512 -0.8344 -0.0000
vn -0.7123 -0.7018 -0.0000
vn -0.7756 -0.6312 -0.0000
vn 0.0046 -1.0000 -0.0000
vn 0.7604 -0.6494 -0.0000
vn 0.7085 -0.7057 -0.0000
vn 0.6387 -0.7695 -0.0000
vn 0.9997 -0.0254 -0.0000
vn 0.9997 -0.0254 0.0000
vn 0.6515 0.7587 0.0000
vn 0.7228 0.6911 0.0000
vn 0.7685 0.6398 0.0000
vn -0.0830 0.9965 0.0000
vn 0.8800 0.4750 0.0000
vn -0.6884 0.7253 0.0000
vn -0.3267 -0.9451 -0.0000
vn 0.0000 0.0000 -1.0000
vn -0.0000 -0.0000 -1.0000
vn -0.0000 0.0000 -1.0000
vn 0.0000 -0.0000 1.0000
vn -0.0000 -0.0000 1.0000
vn -0.4078 0.5549 -0.7251
vn -0.6444 0.2686 -0.7160
vn -0.6444 0.2686 0.7160
vn -0.4078 0.5549 0.7251
vn -0.6890 -0.0743 -0.7209
vn -0.6890 -0.0743 0.7209
vn -0.3512 -0.5306 -0.7714
vn -0.3511 -0.5311 -0.7712
vn -0.3507 -0.5310 0.7714
vn -0.3509 -0.5311 0.7712
vn -0.4184 -0.4381 -0.7957
vn -0.4485 -0.4052 -0.7966
vn -0.4631 -0.3969 0.7925
vn -0.4175 -0.4300 0.8005
vn -0.4699 -0.3838 -0.7949
vn -0.4674 -0.3804 -0.7980
vn -0.4692 -0.3883 0.7931
vn -0.4587 -0.3910 0.7980
vn 0.0032 -0.7015 -0.7127
vn 0.0032 -0.7015 0.7127
vn 0.4663 -0.3982 -0.7899
vn 0.4663 -0.3982 0.7899
vn 0.4161 -0.4145 -0.8093
vn 0.4161 -0.4145 0.8093
vn 0.3951 -0.4760 -0.7857
vn 0.3951 -0.4760 0.7857
vn 0.7005 -0.0178 -0.7134
vn 0.7005 -0.0178 0.7134
vn 0.3961 0.4613 -0.7939
vn 0.3961 0.4613 0.7939
vn 0.4142 0.3960 -0.8195
vn 0.4142 0.3960 0.8195
vn 0.4598 0.3828 -0.8013
vn 0.4598 0.3828 0.8013
vn -0.0579 0.6950 -0.7166
vn -0.0579 0.6950 0.7166
vn -0.4835 0.4237 -0.7660
vn -0.4192 0.4716 -0.7758
vn 0.3679 0.1986 -0.9084
vn 0.3681 0.1987 -0.9083
vn 0.3683 0.1981 0.9083
vn 0.3682 0.1986 0.9083
vn -0.4196 0.4762 0.7727
vn -0.4759 0.4274 0.7687
vn -0.0837 -0.2385 -0.9675
vn -0.0984 -0.2346 -0.9671
vn -0.0826 -0.2389 0.9675
vn -0.0846 -0.2435 0.9662
# 72 vertex normals

vt 0.8243 0.1742 0.0000
vt 0.8243 0.0175 0.0000
vt 0.8605 0.0175 0.0000
vt 0.8605 0.1742 0.0000
vt 0.8243 0.1939 0.0000
vt 0.8605 0.1939 0.0000
vt 0.8243 0.2050 0.0000
vt 0.8605 0.2050 0.0000
vt 0.8492 0.5196 0.0000
vt 0.8492 0.4350 0.0000
vt 0.8855 0.4350 0.0000
vt 0.8855 0.5196 0.0000
vt 0.9513 0.5318 0.0000
vt 0.9920 0.5318 0.0000
vt 0.9920 0.5680 0.0000
vt 0.9513 0.5680 0.0000
vt 0.8789 0.8210 0.0000
vt 0.8789 0.7986 0.0000
vt 0.9151 0.7986 0.0000
vt 0.9151 0.8210 0.0000
vt 0.8789 0.8431 0.0000
vt 0.9151 0.8431 0.0000
vt 0.8853 0.7558 0.0000
vt 0.9260 0.7558 0.0000
vt 0.9260 0.7920 0.0000
vt 0.8853 0.7920 0.0000
vt 0.5078 0.5233 0.0000
vt 0.5078 0.5081 0.0000
vt 0.5440 0.5081 0.0000
vt 0.5440 0.5233 0.0000
vt 0.9513 0.7003 0.0000
vt 0.9513 0.6780 0.0000
vt 0.9875 0.6780 0.0000
vt 0.9875 0.7003 0.0000
vt 0.9513 0.7210 0.0000
vt 0.9875 0.7210 0.0000
vt 0.5746 0.7413 0.0000
vt 0.5746 0.7285 0.0000
vt 0.6108 0.7285 0.0000
vt 0.6108 0.7413 0.0000
vt 0.0066 0.9949 0.0000
vt 0.0066 0.8705 0.0000
vt 0.0428 0.8705 0.0000
vt 0.0428 0.9949 0.0000
vt 0.5584 0.6070 0.0000
vt 0.5584 0.5769 0.0000
vt 0.5946 0.5769 0.0000
vt 0.5946 0.6070 0.0000
vt 0.8243 0.0000 0.0000
vt 0.8605 0.0000 0.0000
vt 0.8986 0.4837 0.0000
vt 0.8986 0.4396 0.0000
vt 0.9348 0.4396 0.0000
vt 0.9348 0.4837 0.0000
vt 0.9329 0.2152 0.0000
vt 0.9329 0.1282 0.0000
vt 0.9691 0.1282 0.0000
vt 0.9691 0.2152 0.0000
vt 0.8427 0.7492 0.0000
vt 0.8427 0.6780 0.0000
vt 0.8789 0.6780 0.0000
vt 0.8789 0.7492 0.0000
vt 0.3549 0.3059 0.0000
vt 0.3418 0.3110 0.0000
vt 0.3339 0.2979 0.0000
vt 0.3460 0.2757 0.0000
vt 0.3314 0.2367 0.0000
vt 0.3459 0.2275 0.0000
vt 0.3610 0.2243 0.0000
vt 0.3765 0.2631 0.0000
vt 0.3312 0.2821 0.0000
vt 0.3852 0.2903 0.0000
vt 0.4153 0.3877 0.0000
vt 0.4417 0.2665 0.0000
vt 0.4556 0.2298 0.0000
vt 0.4655 0.2400 0.0000
vt 0.4694 0.2581 0.0000
vt 0.4337 0.4069 0.0000
vt 0.4199 0.4185 0.0000
vt 0.3978 0.4238 0.0000
vt 0.5363 0.1689 0.0000
vt 0.5524 0.2057 0.0000
vt 0.5306 0.1996 0.0000
vt 0.5172 0.1874 0.0000
vt 0.5800 0.0460 0.0000
vt 0.5702 0.0728 0.0000
vt 0.5147 0.0468 0.0000
vt 0.5023 0.0096 0.0000
vt 0.4920 0.0194 0.0000
vt 0.4874 0.0374 0.0000
vt 0.5999 0.0896 0.0000
vt 0.5970 0.0078 0.0000
vt 0.6120 0.0116 0.0000
vt 0.6261 0.0213 0.0000
vt 0.6100 0.0597 0.0000
vt 0.6213 0.0824 0.0000
vt 0.6246 0.0668 0.0000
vt 0.6128 0.0952 0.0000
vt 0.4396 0.4105 0.0000
vt 0.4762 0.2582 0.0000
vt 0.4806 0.0372 0.0000
vt 0.5112 0.1908 0.0000
vt 0.4715 0.2368 0.0000
vt 0.4861 0.0159 0.0000
vt 0.4572 0.2220 0.0000
vt 0.5010 0.0017 0.0000
vt 0.8920 0.4394 0.0000
vt 0.8920 0.5252 0.0000
vt 0.8427 0.5252 0.0000
vt 0.8427 0.4394 0.0000
vt 0.9986 0.5746 0.0000
vt 0.9568 0.5746 0.0000
vt 0.9568 0.5252 0.0000
vt 0.9986 0.5252 0.0000
vt 0.3653 0.2167 0.0000
vt 0.3434 0.2213 0.0000
vt 0.6148 0.0055 0.0000
vt 0.5931 0.0000 0.0000
vt 0.3234 0.2340 0.0000
vt 0.6342 0.0190 0.0000
vt 0.9205 0.7986 0.0000
vt 0.9205 0.7492 0.0000
vt 0.3377 0.2721 0.0000
vt 0.3238 0.2782 0.0000
vt 0.6321 0.0631 0.0000
vt 0.6185 0.0565 0.0000
vt 0.3276 0.3002 0.0000
vt 0.6274 0.0850 0.0000
vt 0.3391 0.3192 0.0000
vt 0.6152 0.1035 0.0000
vt 0.6174 0.7341 0.0000
vt 0.6174 0.7481 0.0000
vt 0.5680 0.7481 0.0000
vt 0.5680 0.7341 0.0000
vt 0.0494 0.8640 0.0000
vt 0.0494 0.9893 0.0000
vt 0.0000 0.9893 0.0000
vt 0.0000 0.8640 0.0000
vt 0.3936 0.4315 0.0000
vt 0.4229 0.4245 0.0000
vt 0.5273 0.2055 0.0000
vt 0.5563 0.2136 0.0000
vt 0.9414 0.4350 0.0000
vt 0.9414 0.4962 0.0000
vt 0.8920 0.4962 0.0000
vt 0.8920 0.4350 0.0000
vt 0.4326 0.2775 0.0000
vt 0.4141 0.3625 0.0000
vt 0.5386 0.1438 0.0000
vt 0.5234 0.0581 0.0000
vt 0.3920 0.2946 0.0000
vt 0.5633 0.0768 0.0000
# 152 texture coords

g Number_4
usemtl NumberMat
f 1/1/1 2/2/2 3/3/2 
f 3/3/2 4/4/1 1/1/1 
f 5/5/3 1/1/1 4/4/1 
f 4/4/1 6/6/3 5/5/3 
f 7/7/4 5/5/3 6/6/3 
f 6/6/3 8/8/4 7/7/4 
f 9/9/5 7/10/4 8/11/4 
f 8/11/4 10/12/5 9/9/5 
f 11/13/6 9/14/5 10/15/5 
f 10/15/5 12/16/6 11/13/6 
f 13/17/7 11/18/6 12/19/6 
f 12/19/6 14/20/7 13/17/7 
f 15/21/8 13/17/7 14/20/7 
f 14/20/7 16/22/8 15/21/8 
f 17/23/9 15/24/8 16/25/8 
f 16/25/8 18/26/9 17/23/9 
f 19/27/10 17/28/9 18/29/9 
f 18/29/9 20/30/10 19/27/10 
f 21/31/11 19/32/10 20/33/10 
f 20/33/10 22/34/12 21/31/11 
f 23/35/13 21/31/11 22/34/12 
f 22/34/12 24/36/13 23/35/13 
f 25/37/14 23/38/13 24/39/13 
f 24/39/13 26/40/14 25/37/14 
f 27/41/15 25/42/14 26/43/14 
f 26/43/14 28/44/15 27/41/15 
f 29/45/16 27/46/15 28/47/15 
f 28/47/15 30/48/16 29/45/16 
f 2/2/2 29/49/16 30/50/16 
f 30/50/16 3/3/2 2/2/2 
f 31/51/17 32/52/18 33/53/18 
f 33/53/18 34/54/17 31/51/17 
f 35/55/19 31/56/17 34/57/17 
f 34/57/17 36/58/19 35/55/19 
f 32/59/18 35/60/19 36/61/19 
f 36/61/19 33/62/18 32/59/18 
f 37/63/20 38/64/21 39/65/20 
f 40/66/20 41/67/22 42/68/20 
f 42/68/20 43/69/20 44/70/22 
f 40/66/20 42/68/20 44/70/22 
f 37/63/20 40/66/20 44/70/22 
f 37/63/20 39/65/20 40/66/20 
f 40/66/20 39/65/20 45/71/22 
f 37/63/20 44/70/22 46/72/22 
f 37/63/20 46/72/22 47/73/22 
f 48/74/22 46/72/22 44/70/22 
f 48/74/22 44/70/22 49/75/20 
f 48/74/22 49/75/20 50/76/20 
f 48/74/22 50/76/20 51/77/20 
f 48/74/22 51/77/20 52/78/20 
f 47/73/22 48/74/22 52/78/20 
f 53/79/22 47/73/22 52/78/20 
f 54/80/22 47/73/22 53/79/22 
f 37/63/20 47/73/22 54/80/22 
f 55/81/23 56/82/23 57/83/23 
f 55/81/23 57/83/23 58/84/24 
f 59/85/23 60/86/23 61/87/24 
f 62/88/24 59/85/23 61/87/24 
f 63/89/24 62/88/24 61/87/24 
f 64/90/24 63/89/24 61/87/24 
f 58/84/24 64/90/24 61/87/24 
f 58/84/24 61/87/24 55/81/23 
f 65/91/23 56/82/23 55/81/23 
f 65/91/23 55/81/23 60/86/23 
f 65/91/23 60/86/23 59/85/23 
f 59/85/23 66/92/24 67/93/24 
f 67/93/24 68/94/23 69/95/23 
f 59/85/23 67/93/24 69/95/23 
f 70/96/24 69/95/23 71/97/23 
f 65/91/23 69/95/23 70/96/24 
f 65/91/23 59/85/23 69/95/23 
f 65/91/23 70/96/24 72/98/23 
f 3/99/25 52/78/25 51/77/26 
f 51/77/26 4/100/26 3/99/25 
f 1/101/27 64/90/27 58/84/28 
f 58/84/28 2/102/28 1/101/27 
f 4/100/26 51/77/26 50/76/29 
f 50/76/29 6/103/29 4/100/26 
f 5/104/30 63/89/30 64/90/27 
f 64/90/27 1/101/27 5/104/30 
f 6/103/29 50/76/29 49/75/31 
f 49/75/31 8/105/32 6/103/29 
f 7/106/33 62/88/34 63/89/30 
f 63/89/30 5/104/30 7/106/33 
f 8/11/32 49/107/31 44/108/35 
f 44/108/35 10/12/36 8/11/32 
f 9/9/37 59/109/38 62/110/34 
f 62/110/34 7/10/33 9/9/37 
f 10/15/36 44/111/35 43/112/39 
f 43/112/39 12/16/40 10/15/36 
f 11/13/41 66/113/42 59/114/38 
f 59/114/38 9/14/37 11/13/41 
f 12/115/40 43/69/39 42/68/43 
f 42/68/43 14/116/43 12/115/40 
f 13/117/44 67/93/44 66/92/42 
f 66/92/42 11/118/41 13/117/44 
f 14/116/43 42/68/43 41/67/45 
f 41/67/45 16/119/45 14/116/43 
f 15/120/46 68/94/46 67/93/44 
f 67/93/44 13/117/44 15/120/46 
f 16/25/45 41/121/45 40/18/47 
f 40/18/47 18/26/47 16/25/45 
f 17/23/48 69/62/48 68/122/46 
f 68/122/46 15/24/46 17/23/48 
f 18/123/47 40/66/47 45/71/49 
f 45/71/49 20/124/49 18/123/47 
f 19/125/50 71/97/50 69/95/48 
f 69/95/48 17/126/48 19/125/50 
f 20/124/49 45/71/49 39/65/51 
f 39/65/51 22/127/51 20/124/49 
f 21/128/52 70/96/52 71/97/50 
f 71/97/50 19/125/50 21/128/52 
f 22/127/51 39/65/51 38/64/53 
f 38/64/53 24/129/53 22/127/51 
f 23/130/54 72/98/54 70/96/52 
f 70/96/52 21/128/52 23/130/54 
f 24/39/53 38/131/53 37/132/55 
f 37/132/55 26/40/55 24/39/53 
f 25/37/56 65/133/56 72/134/54 
f 72/134/54 23/38/54 25/37/56 
f 26/43/55 37/135/55 54/136/57 
f 54/136/57 28/44/57 26/43/55 
f 27/41/58 56/137/58 65/138/56 
f 65/138/56 25/42/56 27/41/58 
f 28/139/57 54/80/57 53/79/59 
f 53/79/59 30/140/59 28/139/57 
f 29/141/60 57/83/60 56/82/58 
f 56/82/58 27/142/58 29/141/60 
f 30/140/59 53/79/59 52/78/25 
f 52/78/25 3/99/25 30/140/59 
f 2/102/28 58/84/28 57/83/60 
f 57/83/60 29/141/60 2/102/28 
f 33/53/61 46/143/62 48/144/63 
f 48/144/63 34/54/64 33/53/61 
f 31/51/65 61/145/66 60/146/67 
f 60/146/67 32/52/68 31/51/65 
f 34/147/64 48/74/63 47/73/69 
f 47/73/69 36/148/70 34/147/64 
f 35/149/71 55/81/72 61/87/66 
f 61/87/66 31/150/65 35/149/71 
f 36/148/70 47/73/69 46/72/62 
f 46/72/62 33/151/61 36/148/70 
f 32/152/68 60/86/67 55/81/72 
f 55/81/72 35/149/71 32/152/68 
# 144 faces

